<?xml version="1.0" encoding="UTF-8"?>
<svg version="1.1" xmlns="http://www.w3.org/2000/svg" width="1024" height="1024">
<path d="M0 0 C337.92 0 675.84 0 1024 0 C1024 337.92 1024 675.84 1024 1024 C686.08 1024 348.16 1024 0 1024 C0 686.08 0 348.16 0 0 Z " fill="#FEFEFE" transform="translate(0,0)"/>
<path d="M0 0 C8.63012788 3.28712642 17.35531646 6.23839866 26.125 9.125 C33.82245001 11.6617199 41.50342287 14.1957559 49.0625 17.125 C60.81448458 21.66613435 72.92714392 25.27255416 84.9375 29.0625 C84.9375 29.7225 84.9375 30.3825 84.9375 31.0625 C79.3275 33.0425 73.7175 35.0225 67.9375 37.0625 C67.6075 49.6025 67.2775 62.1425 66.9375 75.0625 C65.9475 75.0625 64.9575 75.0625 63.9375 75.0625 C63.9375 63.5125 63.9375 51.9625 63.9375 40.0625 C56.91259135 41.45172901 56.91259135 41.45172901 49.9375 43.0625 C49.94273682 44.208396 49.94797363 45.35429199 49.95336914 46.53491211 C49.97141717 50.77090682 49.98293128 55.00689812 49.99243164 59.24291992 C49.99747231 61.07918875 50.00430477 62.91545354 50.01293945 64.75170898 C50.02501672 67.38526401 50.03073081 70.01876616 50.03515625 72.65234375 C50.04031754 73.47838608 50.04547882 74.30442841 50.05079651 75.15550232 C50.05099205 77.12486368 49.99954152 79.09411614 49.9375 81.0625 C48.16804689 82.83195311 45.73974015 82.40450228 43.36450195 82.60620117 C17.85480309 84.8318796 -3.45085433 94.68401067 -23.0625 111.0625 C-26.86402914 109.30179177 -29.1240104 107.06932657 -32.0625 104.0625 C-36.59937019 99.81863601 -41.24625922 96.49465728 -46.75 93.625 C-47.46897461 93.24593506 -48.18794922 92.86687012 -48.92871094 92.47631836 C-56.94741379 88.39417862 -65.37569529 85.53093408 -73.92871094 82.78930664 C-76.33847942 81.96849649 -78.6988541 81.00795836 -81.0625 80.0625 C-81.0625 68.1825 -81.0625 56.3025 -81.0625 44.0625 C-84.3625 43.0725 -87.6625 42.0825 -91.0625 41.0625 C-93.29451684 40.26490907 -95.51748523 39.44111686 -97.7265625 38.58203125 C-98.86738281 38.14052734 -100.00820313 37.69902344 -101.18359375 37.24414062 C-102.33988281 36.79232422 -103.49617188 36.34050781 -104.6875 35.875 C-106.47994141 35.17987305 -106.47994141 35.17987305 -108.30859375 34.47070312 C-111.22789549 33.33801405 -114.14580604 32.20188352 -117.0625 31.0625 C-117.0625 30.4025 -117.0625 29.7425 -117.0625 29.0625 C-115.93328125 28.71638672 -115.93328125 28.71638672 -114.78125 28.36328125 C-111.86239735 27.46708013 -108.94457824 26.56757911 -106.02697754 25.66731262 C-104.29616871 25.13444065 -102.56418907 24.60537476 -100.83203125 24.0769043 C-86.99653639 19.8138913 -73.28859777 15.16270901 -59.5625 10.5625 C-51.08858741 7.7225254 -42.61208543 4.89080367 -34.12744141 2.08300781 C-31.40177651 1.17546605 -28.6826726 0.25097797 -25.96484375 -0.6796875 C-24.54971808 -1.15175845 -23.13437714 -1.62318497 -21.71875 -2.09375 C-20.57212891 -2.48369141 -19.42550781 -2.87363281 -18.24414062 -3.27539062 C-11.69127752 -4.63906195 -6.04507131 -2.37021139 0 0 Z " fill="#0D9FD0" transform="translate(547.0625,374.9375)"/>
<path d="M0 0 C0 12.87 0 25.74 0 39 C-5.94 39.66 -11.88 40.32 -18 41 C-21.18305621 41.64238549 -24.11289819 42.26477601 -27.1875 43.1875 C-27.92105713 43.40035645 -28.65461426 43.61321289 -29.41040039 43.83251953 C-45.45114115 48.70552444 -59.18603272 57.29853058 -72 68 C-75.80152914 66.23929177 -78.0615104 64.00682657 -81 61 C-85.53687019 56.75613601 -90.18375922 53.43215728 -95.6875 50.5625 C-96.40647461 50.18343506 -97.12544922 49.80437012 -97.86621094 49.41381836 C-105.88491379 45.33167862 -114.31319529 42.46843408 -122.86621094 39.72680664 C-125.27597942 38.90599649 -127.6363541 37.94545836 -130 37 C-130 25.45 -130 13.9 -130 2 C-125.71258112 2.85748378 -122.40980527 3.94652699 -118.4140625 5.6171875 C-117.79405365 5.87501007 -117.1740448 6.13283264 -116.5352478 6.39846802 C-114.56334494 7.21969385 -112.59417969 8.04726883 -110.625 8.875 C-109.31006817 9.42359034 -107.99496546 9.97177129 -106.6796875 10.51953125 C-101.86847541 12.5261357 -97.0610183 14.54012612 -92.27636719 16.609375 C-89.09477907 17.95977186 -85.91560079 19.07233929 -82.625 20.125 C-77.10948905 21.89051095 -77.10948905 21.89051095 -76 23 C-69.34239954 22.57047739 -63.51987676 20.6886944 -57.25 18.5 C-55.12161167 17.77322107 -52.99268164 17.04802705 -50.86328125 16.32421875 C-49.74904785 15.94442871 -48.63481445 15.56463867 -47.48681641 15.17333984 C-41.49099997 13.15570269 -35.4638788 11.23651893 -29.4375 9.3125 C-20.73472124 6.52934175 -12.04671114 3.71414081 -3.39453125 0.77734375 C-1 0 -1 0 0 0 Z " fill="#082747" transform="translate(596,418)"/>
<path d="M0 0 C2.7578125 0.0546875 2.7578125 0.0546875 5.5625 1.125 C9.15363052 5.47823539 11.59052707 10.30793404 14.13085938 15.32861328 C15.71641689 18.4256419 17.37425129 21.47648902 19.046875 24.52734375 C27.20417854 39.40835708 27.20417854 39.40835708 29.5625 44.125 C29.8925 29.935 30.2225 15.745 30.5625 1.125 C33.2025 1.125 35.8425 1.125 38.5625 1.125 C39.5625 2.125 39.5625 2.125 39.68275452 4.48512268 C39.68053391 5.53103073 39.67831329 6.57693878 39.67602539 7.65454102 C39.67594986 8.83568985 39.67587433 10.01683868 39.67579651 11.23377991 C39.67063522 12.5191716 39.66547394 13.80456329 39.66015625 15.12890625 C39.6587413 16.43705795 39.65732635 17.74520966 39.65586853 19.09300232 C39.6520441 22.57662859 39.64221446 26.06021339 39.63116455 29.54382324 C39.62094882 33.09626708 39.61637056 36.64871759 39.61132812 40.20117188 C39.60059212 47.17579832 39.5835166 54.15039717 39.5625 61.125 C29.50031443 61.90292325 29.50031443 61.90292325 26.0637207 59.05224609 C25.54382568 58.09398926 25.02393066 57.13573242 24.48828125 56.1484375 C23.88709473 55.09092285 23.2859082 54.0334082 22.66650391 52.94384766 C22.07530762 51.80737793 21.48411133 50.6709082 20.875 49.5 C19.92246338 47.78949463 19.92246338 47.78949463 18.95068359 46.04443359 C17.69410335 43.78181726 16.45403173 41.50994122 15.23193359 39.22851562 C13.14322441 35.34555699 10.92068817 31.55069924 8.6875 27.75 C7.01655434 24.834887 5.62404946 22.30964839 4.5625 19.125 C4.2325 32.985 3.9025 46.845 3.5625 61.125 C0.5925 61.125 -2.3775 61.125 -5.4375 61.125 C-5.46062821 53.44963373 -5.47841753 45.77427104 -5.48931217 38.09887791 C-5.49453995 34.53522578 -5.50163569 30.97159743 -5.51293945 27.40795898 C-5.52584176 23.31493903 -5.53072906 19.2219442 -5.53515625 15.12890625 C-5.54031754 13.84351456 -5.54547882 12.55812286 -5.55079651 11.23377991 C-5.55087204 10.05263107 -5.55094757 8.87148224 -5.55102539 7.65454102 C-5.553246 6.60863297 -5.55546661 5.56272491 -5.55775452 4.48512268 C-5.36125413 0.62859377 -3.55992306 0.61090723 0 0 Z " fill="#1C2A41" transform="translate(601.4375,528.875)"/>
<path d="M0 0 C1.54300781 -0.03867187 1.54300781 -0.03867187 3.1171875 -0.078125 C6.53954214 0.29522278 8.38408705 1.20048851 11.125 3.25 C11.9375 5.4375 11.9375 5.4375 12.125 7.25 C12.785 7.25 13.445 7.25 14.125 7.25 C14.4653125 6.3528125 14.4653125 6.3528125 14.8125 5.4375 C16.52409274 2.58484544 18.15474278 1.72680856 21.125 0.25 C27.41846131 -0.6139745 33.87243944 -0.65575016 39.125 3.25 C42.71282491 7.75019276 42.52076256 11.77746682 42.41796875 17.26953125 C42.41372391 18.12810226 42.40947906 18.98667328 42.40510559 19.8712616 C42.38836995 22.60199914 42.35072766 25.33198712 42.3125 28.0625 C42.29744653 29.9186091 42.28375928 31.77472982 42.27148438 33.63085938 C42.23848323 38.17085985 42.18673659 42.71030302 42.125 47.25 C39.155 47.25 36.185 47.25 33.125 47.25 C33.09994385 46.20545654 33.0748877 45.16091309 33.04907227 44.0847168 C32.95491461 40.21007984 32.85471428 36.33561866 32.75268555 32.46118164 C32.70936833 30.78414013 32.66769093 29.10705542 32.62768555 27.42993164 C32.56990515 25.01956159 32.5062332 22.6094083 32.44140625 20.19921875 C32.42469376 19.44912033 32.40798126 18.69902191 32.39076233 17.92619324 C32.30155767 14.79322008 32.12263547 12.2429064 31.125 9.25 C29.39805325 9.11390087 27.66795278 9.01750772 25.9375 8.9375 C24.97457031 8.87949219 24.01164062 8.82148437 23.01953125 8.76171875 C18.9473568 9.44865776 17.68430357 11.05404323 15.125 14.25 C14.61737268 17.01892757 14.40235729 19.19400312 14.41796875 21.95703125 C14.40284744 22.68242599 14.38772614 23.40782074 14.37214661 24.15519714 C14.32937173 26.45795013 14.32044259 28.75938984 14.3125 31.0625 C14.28934739 32.62959196 14.26398044 34.19665286 14.23632812 35.76367188 C14.17357806 39.59256345 14.14116299 43.42063984 14.125 47.25 C11.155 47.25 8.185 47.25 5.125 47.25 C5.11041748 46.24098633 5.09583496 45.23197266 5.08081055 44.19238281 C5.02275886 40.44235109 4.94552708 36.69291554 4.86254883 32.94335938 C4.82933165 31.32171314 4.80128965 29.69995219 4.77856445 28.078125 C4.74495845 25.74429523 4.6926424 23.41151365 4.63671875 21.078125 C4.63032883 20.35506165 4.6239389 19.63199829 4.61735535 18.88702393 C4.5277531 15.80704067 4.27683409 13.5393556 2.83520508 10.79199219 C0.45378871 8.64480793 -1.75410315 8.70231433 -4.87109375 8.8515625 C-7.97111249 9.4679405 -9.71276511 11.02224284 -11.875 13.25 C-13.34706013 16.19412027 -13.11307192 19.21285915 -13.19140625 22.4453125 C-13.21218735 23.15275604 -13.23296844 23.86019958 -13.25437927 24.58908081 C-13.31981078 26.85095425 -13.37872974 29.11294462 -13.4375 31.375 C-13.48069133 32.90756422 -13.52430582 34.44011657 -13.56835938 35.97265625 C-13.67548555 39.73165073 -13.7767709 43.49076292 -13.875 47.25 C-16.845 47.25 -19.815 47.25 -22.875 47.25 C-22.875 32.07 -22.875 16.89 -22.875 1.25 C-19.905 1.25 -16.935 1.25 -13.875 1.25 C-13.545 2.57 -13.215 3.89 -12.875 5.25 C-12.276875 4.610625 -11.67875 3.97125 -11.0625 3.3125 C-7.60814829 0.05553981 -4.57197055 0.06840854 0 0 Z " fill="#1F2B41" transform="translate(351.875,542.75)"/>
<path d="M0 0 C4.32004898 3.02235985 6.38736782 7.52538471 8.015625 12.41015625 C8.015625 16.37015625 8.015625 20.33015625 8.015625 24.41015625 C-1.554375 24.41015625 -11.124375 24.41015625 -20.984375 24.41015625 C-19.37697169 32.53272608 -19.37697169 32.53272608 -13.984375 37.41015625 C-10.51915568 37.98979564 -7.17235473 37.88345567 -3.671875 37.72265625 C-2.74052734 37.70009766 -1.80917969 37.67753906 -0.84960938 37.65429688 C1.4404646 37.59557703 3.72720375 37.51352483 6.015625 37.41015625 C6.015625 39.72015625 6.015625 42.03015625 6.015625 44.41015625 C-1.99022718 47.56703802 -13.65982748 48.40603314 -21.734375 44.91015625 C-26.61201788 41.85203858 -29.21106466 36.73008728 -30.984375 31.41015625 C-31.26080887 28.35260697 -31.26176406 25.29135213 -31.296875 22.22265625 C-31.32587891 21.39701172 -31.35488281 20.57136719 -31.38476562 19.72070312 C-31.45167587 13.18923341 -30.10138327 7.78089956 -25.57177734 2.88256836 C-17.88692457 -3.90780988 -9.06512065 -4.42162353 0 0 Z " fill="#1E2B42" transform="translate(545.984375,544.58984375)"/>
<path d="M0 0 C0.78568359 -0.02449219 1.57136719 -0.04898438 2.38085938 -0.07421875 C7.75292411 -0.10119146 10.82236049 0.78868353 15.0625 4.375 C17.092168 7.419502 17.31106301 7.97776328 17.28955078 11.38745117 C17.28939972 12.18805466 17.28924866 12.98865814 17.28909302 13.81352234 C17.27877045 14.67298965 17.26844788 15.53245697 17.2578125 16.41796875 C17.2549826 17.3015657 17.25215271 18.18516266 17.24923706 19.09553528 C17.23804097 21.91799454 17.21293751 24.74013662 17.1875 27.5625 C17.17746946 29.47590688 17.16834374 31.38931873 17.16015625 33.30273438 C17.13810351 37.99361182 17.10357762 42.68425213 17.0625 47.375 C15.78375 47.436875 14.505 47.49875 13.1875 47.5625 C12.10855469 47.61470703 12.10855469 47.61470703 11.0078125 47.66796875 C10.36585938 47.57128906 9.72390625 47.47460938 9.0625 47.375 C8.4025 46.385 7.7425 45.395 7.0625 44.375 C6.299375 45.035 5.53625 45.695 4.75 46.375 C0.21119872 49.38652692 -4.69954018 49.13412461 -9.9375 48.375 C-13.3444057 47.18682648 -16.09121233 45.69144749 -18.09765625 42.5703125 C-20.16856196 37.15706129 -19.7179454 31.1635207 -17.4375 25.9375 C-12.40152474 20.77562536 -8.32558142 19.1985818 -1.01879883 19.10693359 C2.01318527 19.13325228 5.03365001 19.23302266 8.0625 19.375 C7.93875 18.09625 7.815 16.8175 7.6875 15.5 C7.61789062 14.78070312 7.54828125 14.06140625 7.4765625 13.3203125 C7.19875251 11.14831755 7.19875251 11.14831755 5.0625 9.375 C3.02782566 9.09813935 3.02782566 9.09813935 0.7109375 9.1796875 C-0.13984375 9.18613281 -0.990625 9.19257812 -1.8671875 9.19921875 C-2.75664062 9.21597656 -3.64609375 9.23273437 -4.5625 9.25 C-5.90828125 9.26353516 -5.90828125 9.26353516 -7.28125 9.27734375 C-9.50026586 9.3009503 -11.71875077 9.3338769 -13.9375 9.375 C-13.9375 7.065 -13.9375 4.755 -13.9375 2.375 C-9.30477376 0.04465481 -5.0698372 0.00827729 0 0 Z " fill="#1D2B41" transform="translate(420.9375,542.625)"/>
<path d="M0 0 C1.29349365 0.00523682 2.5869873 0.01047363 3.91967773 0.01586914 C4.9496714 0.01799156 4.9496714 0.01799156 6.00047302 0.02015686 C8.20144949 0.0257706 10.40232557 0.03832532 12.60327148 0.05102539 C14.09220231 0.05603863 15.58113473 0.06060184 17.07006836 0.06469727 C20.72700223 0.07574446 24.38387707 0.09301826 28.04077148 0.11352539 C28.04077148 2.75352539 28.04077148 5.39352539 28.04077148 8.11352539 C20.78077148 8.11352539 13.52077148 8.11352539 6.04077148 8.11352539 C6.04077148 14.05352539 6.04077148 19.99352539 6.04077148 26.11352539 C7.47291992 26.10192383 8.90506836 26.09032227 10.38061523 26.07836914 C12.24649935 26.06899284 14.11238488 26.05989247 15.97827148 26.05102539 C16.92379883 26.04264648 17.86932617 26.03426758 18.84350586 26.02563477 C20.1921875 26.02080078 20.1921875 26.02080078 21.56811523 26.01586914 C22.81709595 26.00801392 22.81709595 26.00801392 24.09130859 26 C26.04077148 26.11352539 26.04077148 26.11352539 27.04077148 27.11352539 C27.04077148 29.42352539 27.04077148 31.73352539 27.04077148 34.11352539 C20.11077148 34.11352539 13.18077148 34.11352539 6.04077148 34.11352539 C6.04077148 40.38352539 6.04077148 46.65352539 6.04077148 53.11352539 C13.63077148 53.11352539 21.22077148 53.11352539 29.04077148 53.11352539 C29.04077148 55.42352539 29.04077148 57.73352539 29.04077148 60.11352539 C18.15077148 60.11352539 7.26077148 60.11352539 -3.95922852 60.11352539 C-3.980174 52.44514972 -4.0002121 44.77687708 -4.0109787 37.10849762 C-4.01626841 33.53781414 -4.0233419 29.96715424 -4.03466797 26.39648438 C-4.04757027 22.30346442 -4.05245758 18.21046959 -4.05688477 14.11743164 C-4.06204605 12.83203995 -4.06720734 11.54664825 -4.07252502 10.2223053 C-4.07260056 9.04115646 -4.07267609 7.86000763 -4.07275391 6.64306641 C-4.07497452 5.59715836 -4.07719513 4.55125031 -4.07948303 3.47364807 C-3.89970029 -0.05477929 -3.59088419 0.13775771 0 0 Z " fill="#18253E" transform="translate(697.959228515625,529.886474609375)"/>
<path d="M0 0 C0.68429077 -0.00095673 1.36858154 -0.00191345 2.0736084 -0.00289917 C3.52286877 -0.0035808 4.97213218 -0.00172773 6.42138672 0.00244141 C8.64687928 0.00778998 10.87217001 0.0024959 13.09765625 -0.00390625 C14.50260461 -0.00324547 15.90755285 -0.0019643 17.3125 0 C18.59962891 0.00112793 19.88675781 0.00225586 21.21289062 0.00341797 C24.15625 0.1328125 24.15625 0.1328125 25.15625 1.1328125 C25.28125 4.1328125 25.28125 4.1328125 25.15625 7.1328125 C24.15625 8.1328125 24.15625 8.1328125 22.02319336 8.24633789 C21.10675049 8.24110107 20.19030762 8.23586426 19.24609375 8.23046875 C18.25673828 8.22724609 17.26738281 8.22402344 16.24804688 8.22070312 C15.20712891 8.21232422 14.16621094 8.20394531 13.09375 8.1953125 C12.04896484 8.19080078 11.00417969 8.18628906 9.92773438 8.18164062 C7.33721546 8.16981177 4.74672578 8.15187569 2.15625 8.1328125 C2.15625 14.0728125 2.15625 20.0128125 2.15625 26.1328125 C3.58839844 26.12121094 5.02054688 26.10960937 6.49609375 26.09765625 C8.36197787 26.08827995 10.22786339 26.07917958 12.09375 26.0703125 C13.03927734 26.06193359 13.98480469 26.05355469 14.95898438 26.04492188 C16.30766602 26.04008789 16.30766602 26.04008789 17.68359375 26.03515625 C18.93257446 26.02730103 18.93257446 26.02730103 20.20678711 26.01928711 C22.15625 26.1328125 22.15625 26.1328125 23.15625 27.1328125 C23.15625 29.1128125 23.15625 31.0928125 23.15625 33.1328125 C15.89625 33.1328125 8.63625 33.1328125 1.15625 33.1328125 C1.15625 39.7328125 1.15625 46.3328125 1.15625 53.1328125 C9.07625 53.1328125 16.99625 53.1328125 25.15625 53.1328125 C25.15625 55.4428125 25.15625 57.7528125 25.15625 60.1328125 C14.26625 60.1328125 3.37625 60.1328125 -7.84375 60.1328125 C-7.86469549 52.46443683 -7.88473358 44.79616419 -7.89550018 37.12778473 C-7.9007899 33.55710125 -7.90786339 29.98644135 -7.91918945 26.41577148 C-7.93209176 22.32275153 -7.93697906 18.2297567 -7.94140625 14.13671875 C-7.94656754 12.85132706 -7.95172882 11.56593536 -7.95704651 10.24159241 C-7.95712204 9.06044357 -7.95719757 7.87929474 -7.95727539 6.66235352 C-7.959496 5.61644547 -7.96171661 4.57053741 -7.96400452 3.49293518 C-7.71497521 -1.39452957 -4.13282556 0.00362165 0 0 Z " fill="#222F46" transform="translate(659.84375,529.8671875)"/>
<path d="M0 0 C0.86625 0.495 1.7325 0.99 2.625 1.5 C2.295 3.81 1.965 6.12 1.625 8.5 C1.1196875 8.34015625 0.614375 8.1803125 0.09375 8.015625 C-3.24980685 7.31728718 -6.46112307 7.29032138 -9.875 7.25 C-11.1846875 7.22421875 -12.494375 7.1984375 -13.84375 7.171875 C-17.48485848 7.51020809 -18.92366582 7.83417407 -21.375 10.5 C-22.04176878 13.95749949 -22.04176878 13.95749949 -21.375 17.5 C-17.69247989 22.27010377 -12.06204613 24.35855969 -6.75 26.88085938 C-1.52537514 29.4977872 2.59604576 32.39036386 5.625 37.5 C6.31640625 40.8515625 6.31640625 40.8515625 6.1875 44.125 C6.16816406 45.21039062 6.14882813 46.29578125 6.12890625 47.4140625 C5.39465944 51.91061276 3.60562709 54.54661255 0.375 57.6875 C-5.00997125 61.2366856 -10.53957701 61.77617943 -16.875 61.75 C-18.1228125 61.75515625 -19.370625 61.7603125 -20.65625 61.765625 C-24.57204225 61.48592555 -27.6602333 60.70634176 -31.375 59.5 C-31.375 56.86 -31.375 54.22 -31.375 51.5 C-30.84132813 51.644375 -30.30765625 51.78875 -29.7578125 51.9375 C-21.12904888 54.08722658 -13.35686684 54.91550081 -5.375 50.5 C-3.80564406 47.36128812 -4.02298897 44.96144178 -4.375 41.5 C-8.55695688 36.36539658 -13.59797413 34.23149944 -19.4921875 31.62695312 C-25.23619143 28.94461167 -28.12415654 25.82267368 -31.6875 20.5625 C-33.12020224 16.26439329 -32.76678879 12.58830221 -31.25 8.375 C-24.53655951 -1.91894209 -11.20414474 -4.84441504 0 0 Z " fill="#202C42" transform="translate(314.375,529.5)"/>
<path d="M0 0 C19.36541375 5.07260453 44.33369444 12.50054167 56 30 C59.62696011 28.97991747 61.90370544 27.3098197 64.625 24.8125 C82.43475445 8.90858643 107.47698935 1.83120179 131 1 C131.33 2.98 131.66 4.96 132 7 C131.31679688 7.00257813 130.63359375 7.00515625 129.9296875 7.0078125 C108.07485962 7.84623301 82.87228473 16.10200049 67.05859375 31.578125 C64.77104743 34.26935597 62.89707495 37.02318398 61 40 C61.66 40.33 62.32 40.66 63 41 C61.5 43 61.5 43 59 45 C51.9435285 45.84096627 48.06037031 43.85087256 42.1875 40.125 C40.51094463 39.11025149 38.83250324 38.09861356 37.15234375 37.08984375 C36.3001123 36.57405762 35.44788086 36.05827148 34.56982422 35.52685547 C22.8627476 28.57112137 10.77737816 22.69840811 -2 18 C6.71570617 15.09476461 23.95119141 26.51029011 31.94140625 30.390625 C37.66672725 33.26135539 42.93932735 36.62558488 48.1875 40.28515625 C50.91107891 41.94578283 52.86095263 42.62493 56 43 C55.56144639 38.21099462 53.30948579 35.50553747 50.125 32.125 C49.63322266 31.5976123 49.14144531 31.07022461 48.63476562 30.52685547 C43.97508614 25.69651894 38.8667417 22.24721224 33 19 C32.12730469 18.47921875 31.25460937 17.9584375 30.35546875 17.421875 C20.91407938 11.94780444 10.64276473 8.34140824 0 6 C0 4.02 0 2.04 0 0 Z " fill="#E3B524" transform="translate(466,455)"/>
<path d="M0 0 C1.6874269 0.00015917 3.37485866 0.00585622 5.06225586 0.01586914 C6.39189613 0.01799156 6.39189613 0.01799156 7.74839783 0.02015686 C10.59133215 0.02577324 13.43418892 0.03832848 16.27709961 0.05102539 C18.19962452 0.05603828 20.12215065 0.06060155 22.04467773 0.06469727 C26.7680151 0.07574798 31.49129419 0.09302356 36.21459961 0.11352539 C36.21459961 2.75352539 36.21459961 5.39352539 36.21459961 8.11352539 C30.93459961 8.11352539 25.65459961 8.11352539 20.21459961 8.11352539 C20.21459961 25.27352539 20.21459961 42.43352539 20.21459961 60.11352539 C17.24459961 60.11352539 14.27459961 60.11352539 11.21459961 60.11352539 C11.21459961 42.95352539 11.21459961 25.79352539 11.21459961 8.11352539 C6.26459961 8.11352539 1.31459961 8.11352539 -3.78540039 8.11352539 C-4.78540039 7.11352539 -4.78540039 7.11352539 -4.91040039 4.11352539 C-4.72525098 -0.33006046 -4.60261584 0.13803395 0 0 Z " fill="#2D384C" transform="translate(736.785400390625,529.886474609375)"/>
<path d="M0 0 C1.134375 0.020625 2.26875 0.04125 3.4375 0.0625 C3.4375 4.0225 3.4375 7.9825 3.4375 12.0625 C7.3975 12.0625 11.3575 12.0625 15.4375 12.0625 C15.4375 14.0425 15.4375 16.0225 15.4375 18.0625 C14.4375 19.0625 14.4375 19.0625 12.15234375 19.16015625 C10.77755859 19.14275391 10.77755859 19.14275391 9.375 19.125 C8.45589844 19.11597656 7.53679687 19.10695313 6.58984375 19.09765625 C5.87957031 19.08605469 5.16929687 19.07445312 4.4375 19.0625 C4.5554762 23.31685079 4.6797037 27.57095821 4.80981445 31.82495117 C4.8532163 33.2731424 4.89488744 34.72138654 4.93481445 36.16967773 C4.99239062 38.24739559 5.05612028 40.32484573 5.12109375 42.40234375 C5.15775146 43.65394287 5.19440918 44.90554199 5.23217773 46.19506836 C5.11553906 48.95880504 5.11553906 48.95880504 6.4375 50.0625 C7.95219448 50.29442865 9.47504562 50.47465238 11 50.625 C11.82628906 50.70878906 12.65257812 50.79257812 13.50390625 50.87890625 C14.46103516 50.96978516 14.46103516 50.96978516 15.4375 51.0625 C15.4375 53.3725 15.4375 55.6825 15.4375 58.0625 C10.22894989 59.79868337 4.6761952 59.87224082 -0.5 58 C-4.195904 54.52809018 -5.43165995 50.42576895 -5.90307617 45.51391602 C-5.88736572 44.29373779 -5.87165527 43.07355957 -5.85546875 41.81640625 C-5.84910149 40.83244118 -5.84910149 40.83244118 -5.84260559 39.82859802 C-5.82598779 37.76029089 -5.78837238 35.69300599 -5.75 33.625 C-5.73493111 32.21160275 -5.72124659 30.79819002 -5.70898438 29.38476562 C-5.67614104 25.94368565 -5.62448015 22.50319281 -5.5625 19.0625 C-7.8725 19.0625 -10.1825 19.0625 -12.5625 19.0625 C-12.5625 16.7525 -12.5625 14.4425 -12.5625 12.0625 C-9.9225 12.0625 -7.2825 12.0625 -4.5625 12.0625 C-4.57410156 11.28003906 -4.58570313 10.49757813 -4.59765625 9.69140625 C-4.60667969 8.67949219 -4.61570312 7.66757812 -4.625 6.625 C-4.63660156 5.61566406 -4.64820313 4.60632813 -4.66015625 3.56640625 C-4.50618986 -0.38129207 -4.09874205 0.07190776 0 0 Z " fill="#17253F" transform="translate(492.5625,531.9375)"/>
<path d="M0 0 C0 2.64 0 5.28 0 8 C-0.59167969 8.15855469 -1.18335938 8.31710937 -1.79296875 8.48046875 C-2.58316406 8.71378906 -3.37335937 8.94710937 -4.1875 9.1875 C-4.96480469 9.40792969 -5.74210938 9.62835937 -6.54296875 9.85546875 C-9.86517186 11.40301328 -11.65724806 13.17491678 -14 16 C-14.77419007 19.46504717 -14.77419007 19.46504717 -14.70703125 23.26953125 C-14.72215256 23.95053391 -14.73727386 24.63153656 -14.75285339 25.33317566 C-14.79560078 27.49329063 -14.80455435 29.65200493 -14.8125 31.8125 C-14.83565489 33.28324002 -14.86102231 34.75394698 -14.88867188 36.22460938 C-14.9513916 39.81637971 -14.98383125 43.40768404 -15 47 C-18.3 47 -21.6 47 -25 47 C-25 31.82 -25 16.64 -25 1 C-22.03 1 -19.06 1 -16 1 C-15.67 2.65 -15.34 4.3 -15 6 C-14.21625 5.195625 -13.4325 4.39125 -12.625 3.5625 C-8.32182266 -0.63822074 -5.79413828 -0.09345384 0 0 Z " fill="#222F45" transform="translate(588,543)"/>
<path d="M0 0 C1 1 1 1 1.09765625 2.84765625 C1.06510417 4.8984375 1.03255208 6.94921875 1 9 C0.32453125 9.07476563 -0.3509375 9.14953125 -1.046875 9.2265625 C-2.38492187 9.42378906 -2.38492187 9.42378906 -3.75 9.625 C-4.63171875 9.74101563 -5.5134375 9.85703125 -6.421875 9.9765625 C-10.13779835 11.45167147 -11.08084366 13.54112511 -13 17 C-13.63314065 20.46676459 -13.63314065 20.46676459 -13.609375 24.1484375 C-13.62591125 24.80582916 -13.64244751 25.46322083 -13.65948486 26.14053345 C-13.70766603 28.21878676 -13.72926614 30.29631026 -13.75 32.375 C-13.77818516 33.79300488 -13.80811613 35.21097621 -13.83984375 36.62890625 C-13.91341292 40.08578041 -13.96317098 43.54251673 -14 47 C-16.97 47 -19.94 47 -23 47 C-23 31.82 -23 16.64 -23 1 C-20.36 1 -17.72 1 -15 1 C-15 2.98 -15 4.96 -15 7 C-14.50371094 6.4946875 -14.00742187 5.989375 -13.49609375 5.46875 C-9.06117137 1.22738211 -6.45878375 -1.05449531 0 0 Z " fill="#1C2A40" transform="translate(472,543)"/>
<path d="M0 0 C-3.0576011 3.47019305 -5.74961921 4.9533667 -10.0625 6.5625 C-11.39763903 7.07551415 -12.73222749 7.58996241 -14.06640625 8.10546875 C-14.82969238 8.39728027 -15.59297852 8.6890918 -16.37939453 8.98974609 C-41.31120231 17.63735576 -41.31120231 17.63735576 -63.6328125 31.22265625 C-66 33 -66 33 -70 33 C-68.62433792 29.99491293 -67.03346003 27.6247979 -64.875 25.125 C-64.33617187 24.48820312 -63.79734375 23.85140625 -63.2421875 23.1953125 C-48.2320513 8.49897705 -21.06240907 -2.39951496 0 0 Z " fill="#D5F7EA" transform="translate(597,462)"/>
<path d="M0 0 C2.86875102 4.88608128 3.48283093 8.6784487 3.625 14.1875 C3.77857103 19.67112467 3.77857103 19.67112467 5 25 C5.08021999 26.40824893 5.10765977 27.81997231 5.09765625 29.23046875 C5.09443359 30.03291016 5.09121094 30.83535156 5.08789062 31.66210938 C5.07532227 32.91217773 5.07532227 32.91217773 5.0625 34.1875 C5.05798828 35.03248047 5.05347656 35.87746094 5.04882812 36.74804688 C5.03705403 38.83206155 5.0191189 40.91603977 5 43 C0.16144615 43.03998805 -4.23013567 42.95397287 -9 42 C-9.19016929 37.03446863 -9.20440239 32.35519979 -8.0625 27.5 C-6.7505474 21.79665052 -6.62724898 16.07544858 -6.51782227 10.24414062 C-6.40231299 6.81650437 -6.27993108 4.52740638 -4.65234375 1.4609375 C-3 0 -3 0 0 0 Z " fill="#FBBF0A" transform="translate(614,450)"/>
<path d="M0 0 C5.75405452 1.58566847 11.1463604 3.43311596 16.5546875 5.953125 C20.47559293 7.63172349 24.53075988 8.8803292 28.59375 10.16796875 C31 11 31 11 32 12 C40.09361957 11.5339749 47.309493 8.6586832 54.89257812 5.97070312 C61.54423497 3.66869569 68.03600567 2.03759303 75 1 C73.17181869 4.97948304 70.93087282 7.93776479 67 10 C64.77666666 10.19130019 62.67542493 10.05806854 60.44921875 9.92578125 C56.00534308 10.06044415 51.77373971 11.6886736 48 14 C46.69327738 16.03686058 46.69327738 16.03686058 46 18 C28 18 28 18 24 17 C23.38125 16.360625 22.7625 15.72125 22.125 15.0625 C18.23039245 11.28243973 13.2526942 11 8 11 C8 10.34 8 9.68 8 9 C7.34 9 6.68 9 6 9 C2.83129848 6.32640809 1.30613942 3.91841827 0 0 Z " fill="#020F1C" transform="translate(488,429)"/>
<path d="M0 0 C2.31 0 4.62 0 7 0 C7 16.83 7 33.66 7 51 C4.03 51.495 4.03 51.495 1 52 C0 51 0 51 -0.12025452 48.94358826 C-0.11803391 48.03979935 -0.11581329 47.13601044 -0.11352539 46.20483398 C-0.11344986 45.18385117 -0.11337433 44.16286835 -0.11329651 43.11094666 C-0.10813522 42.0005452 -0.10297394 40.89014374 -0.09765625 39.74609375 C-0.0962413 38.61551041 -0.09482635 37.48492706 -0.09336853 36.32008362 C-0.08775019 32.69252935 -0.07519458 29.06503576 -0.0625 25.4375 C-0.05748736 22.98502693 -0.05292405 20.5325529 -0.04882812 18.08007812 C-0.0377748 12.05336455 -0.02101884 6.02668661 0 0 Z " fill="#19273C" transform="translate(749,538)"/>
<path d="M0 0 C0 0.66 0 1.32 0 2 C1.06395996 2.06586304 1.06395996 2.06586304 2.14941406 2.13305664 C11.50910532 2.77761702 20.77688087 3.91470011 30.08084106 5.0987854 C46.37664482 7.16671271 62.60766652 8.86593919 79 10 C79 22.21 79 34.42 79 47 C78.01 47 77.02 47 76 47 C75.505 29.675 75.505 29.675 75 12 C71.74125 11.87625 68.4825 11.7525 65.125 11.625 C55.00855149 11.18911348 45.04316616 10.24924419 35 9 C31.69036071 8.59109505 28.38038057 8.18595574 25.06933594 7.78857422 C22.84000195 7.5208898 20.61141347 7.24688926 18.38378906 6.96533203 C9.98857188 5.95650374 1.38315192 5.13505605 -7 6.625 C-10.17415169 7.02176896 -11.39390499 6.77214461 -14 5 C-14 4.34 -14 3.68 -14 3 C-10.7 3 -7.4 3 -4 3 C-4 2.34 -4 1.68 -4 1 C-2 0 -2 0 0 0 Z " fill="#01253D" transform="translate(535,403)"/>
<path d="M0 0 C0.04254356 1.99954746 0.04080783 4.00041636 0 6 C-1 7 -1 7 -3.28515625 7.09765625 C-4.65994141 7.08025391 -4.65994141 7.08025391 -6.0625 7.0625 C-6.98160156 7.05347656 -7.90070313 7.04445313 -8.84765625 7.03515625 C-9.55792969 7.02355469 -10.26820313 7.01195312 -11 7 C-10.8820238 11.25435079 -10.7577963 15.50845821 -10.62768555 19.76245117 C-10.5842837 21.2106424 -10.54261256 22.65888654 -10.50268555 24.10717773 C-10.44510938 26.18489559 -10.38137972 28.26234573 -10.31640625 30.33984375 C-10.27974854 31.59144287 -10.24309082 32.84304199 -10.20532227 34.13256836 C-10.32196094 36.89630504 -10.32196094 36.89630504 -9 38 C-7.48530552 38.23192865 -5.96245438 38.41215238 -4.4375 38.5625 C-3.61121094 38.64628906 -2.78492188 38.73007812 -1.93359375 38.81640625 C-0.97646484 38.90728516 -0.97646484 38.90728516 0 39 C0 41.31 0 43.62 0 46 C-5.20855011 47.73618337 -10.7613048 47.80974082 -15.9375 45.9375 C-19.633404 42.46559018 -20.86915995 38.36326895 -21.34057617 33.45141602 C-21.32486572 32.23123779 -21.30915527 31.01105957 -21.29296875 29.75390625 C-21.28660149 28.76994118 -21.28660149 28.76994118 -21.28010559 27.76609802 C-21.26348779 25.69779089 -21.22587238 23.63050599 -21.1875 21.5625 C-21.17243111 20.14910275 -21.15874659 18.73569002 -21.14648438 17.32226562 C-21.11364104 13.88118565 -21.06198015 10.44069281 -21 7 C-23.31 7 -25.62 7 -28 7 C-28 6.67 -28 6.34 -28 6 C-25.36 6 -22.72 6 -20 6 C-19.67 15.57 -19.34 25.14 -19 35 C-16.525 34.505 -16.525 34.505 -14 34 C-13.67 34 -13.34 34 -13 34 C-12.67 24.76 -12.34 15.52 -12 6 C-11.34 5.67 -10.68 5.34 -10 5 C-10.66 4.67 -11.32 4.34 -12 4 C-11.67 3.01 -11.34 2.02 -11 1 C-3.375 0 -3.375 0 0 0 Z " fill="#404C5F" transform="translate(508,544)"/>
<path d="M0 0 C1.29349365 0.00523682 2.5869873 0.01047363 3.91967773 0.01586914 C4.9496714 0.01799156 4.9496714 0.01799156 6.00047302 0.02015686 C8.20144949 0.0257706 10.40232557 0.03832532 12.60327148 0.05102539 C14.09220231 0.05603863 15.58113473 0.06060184 17.07006836 0.06469727 C20.72700223 0.07574446 24.38387707 0.09301826 28.04077148 0.11352539 C28.04077148 2.75352539 28.04077148 5.39352539 28.04077148 8.11352539 C20.78077148 8.11352539 13.52077148 8.11352539 6.04077148 8.11352539 C6.04077148 14.05352539 6.04077148 19.99352539 6.04077148 26.11352539 C12.64077148 26.11352539 19.24077148 26.11352539 26.04077148 26.11352539 C26.04077148 26.44352539 26.04077148 26.77352539 26.04077148 27.11352539 C19.11077148 27.11352539 12.18077148 27.11352539 5.04077148 27.11352539 C4.71077148 19.19352539 4.38077148 11.27352539 4.04077148 3.11352539 C1.73077148 2.78352539 -0.57922852 2.45352539 -2.95922852 2.11352539 C-2.95922852 21.25352539 -2.95922852 40.39352539 -2.95922852 60.11352539 C-3.28922852 60.11352539 -3.61922852 60.11352539 -3.95922852 60.11352539 C-3.98235672 52.43815912 -4.00014605 44.76279644 -4.01104069 37.0874033 C-4.01626847 33.52375117 -4.02336421 29.96012282 -4.03466797 26.39648438 C-4.04757027 22.30346442 -4.05245758 18.21046959 -4.05688477 14.11743164 C-4.06204605 12.83203995 -4.06720734 11.54664825 -4.07252502 10.2223053 C-4.07260056 9.04115646 -4.07267609 7.86000763 -4.07275391 6.64306641 C-4.07497452 5.59715836 -4.07719513 4.55125031 -4.07948303 3.47364807 C-3.89970029 -0.05477929 -3.59088419 0.13775771 0 0 Z " fill="#3D485C" transform="translate(697.959228515625,529.886474609375)"/>
<path d="M0 0 C7.26 0 14.52 0 22 0 C22 0.33 22 0.66 22 1 C15.07 1 8.14 1 1 1 C1 7.27 1 13.54 1 20 C8.59 20 16.18 20 24 20 C24 22.31 24 24.62 24 27 C19.95834861 27.02915731 15.9167245 27.04685173 11.875 27.0625 C10.16183594 27.07506836 10.16183594 27.07506836 8.4140625 27.08789062 C7.30546875 27.09111328 6.196875 27.09433594 5.0546875 27.09765625 C3.53077393 27.10551147 3.53077393 27.10551147 1.97607422 27.11352539 C-1.09114726 26.99652309 -3.98633134 26.56776417 -7 26 C-7 22.37 -7 18.74 -7 15 C-5.68 15 -4.36 15 -3 15 C-2.34 15.66 -1.68 16.32 -1 17 C-0.67 11.39 -0.34 5.78 0 0 Z " fill="#26344A" transform="translate(703,563)"/>
<path d="M0 0 C0.33 0 0.66 0 1 0 C1.33 7.26 1.66 14.52 2 22 C2.66 22 3.32 22 4 22 C3.49396008 24.16874252 3.00016187 25.99967627 2 28 C3.32 28 4.64 28 6 28 C6.66 28 7.32 28 8 28 C8.66 29.32 9.32 30.64 10 32 C10.33 30.68 10.66 29.36 11 28 C11.99 28 12.98 28 14 28 C14 29.98 14 31.96 14 34 C18.2051632 34.23540536 18.2051632 34.23540536 22.125 32.9375 C24 32 24 32 26.25 32.375 C26.8275 32.58125 27.405 32.7875 28 33 C28 35.33333333 28 37.66666667 28 40 C28.66 40.33 29.32 40.66 30 41 C30.625 43.5625 30.625 43.5625 31 46 C25.05617112 44.05474691 19.14875389 42.0146594 13.25 39.9375 C12.51724854 39.6801709 11.78449707 39.4228418 11.02954102 39.15771484 C10.32369873 38.90844238 9.61785645 38.65916992 8.890625 38.40234375 C8.26188477 38.18054443 7.63314453 37.95874512 6.98535156 37.73022461 C4.63904151 36.86723723 2.32117652 35.92847061 0 35 C0 23.45 0 11.9 0 0 Z " fill="#2E5671" transform="translate(466,420)"/>
<path d="M0 0 C6.0546875 -0.1953125 6.0546875 -0.1953125 8 0 C8.66 0.66 9.32 1.32 10 2 C12.57061311 2.64767793 12.57061311 2.64767793 15 3 C15 3.33 15 3.66 15 4 C13.66195313 4.16435547 13.66195313 4.16435547 12.296875 4.33203125 C11.12640625 4.49058594 9.9559375 4.64914062 8.75 4.8125 C7.58984375 4.96332031 6.4296875 5.11414063 5.234375 5.26953125 C1.97499432 6.00564742 0.32190445 6.62737434 -2 9 C-2.66666667 12.5 -2.66666667 12.5 -2 16 C0.77893532 19.20646383 3.90364407 19.53450501 8 20 C7.42121094 20.28359375 6.84242188 20.5671875 6.24609375 20.859375 C4.82272435 21.58219911 3.41577197 22.33915425 2.03515625 23.140625 C-3.25528655 26.11584432 -3.25528655 26.11584432 -6.8125 25.5625 C-9.70264904 23.49810783 -10.69807544 22.35759492 -12 19 C-12.34151561 15.30736242 -12.45685471 11.68450357 -12 8 C-11.34 7.34 -10.68 6.68 -10 6 C-9.01 6.33 -8.02 6.66 -7 7 C-6.773125 6.360625 -6.54625 5.72125 -6.3125 5.0625 C-5 3 -5 3 -2.375 2.25 C-1.59125 2.1675 -0.8075 2.085 0 2 C0 1.34 0 0.68 0 0 Z " fill="#1D2A41" transform="translate(414,564)"/>
<path d="M0 0 C2.64 0 5.28 0 8 0 C7.90658639 5.09066226 7.80052089 10.18084204 7.68261719 15.27099609 C7.64428659 17.00334407 7.60944094 18.73577274 7.578125 20.46826172 C7.53256235 22.95569749 7.47455497 25.44257566 7.4140625 27.9296875 C7.40251129 28.70682098 7.39096008 29.48395447 7.37905884 30.28463745 C7.22774341 35.77225659 7.22774341 35.77225659 5 38 C4.67 37.34 4.34 36.68 4 36 C3.01 38.475 3.01 38.475 2 41 C1.67 41 1.34 41 1 41 C0.16293741 35.9283855 -0.13517405 31.02235861 -0.09765625 25.87890625 C-0.0962413 25.13414536 -0.09482635 24.38938446 -0.09336853 23.62205505 C-0.08781989 21.26882727 -0.07527733 18.9156985 -0.0625 16.5625 C-0.05747835 14.95638159 -0.05291661 13.35026168 -0.04882812 11.74414062 C-0.03786735 7.82938957 -0.02063884 3.91471151 0 0 Z " fill="#19263D" transform="translate(632,530)"/>
<path d="M0 0 C17.29536485 4.53037292 35.82119166 10.43415949 49 23 C46 23 46 23 43 22 C43 21.34 43 20.68 43 20 C41.68 20 40.36 20 39 20 C39.66 20.99 40.32 21.98 41 23 C38.76735609 21.93832318 36.67898544 20.79878247 34.58203125 19.484375 C23.85543234 12.76701264 12.25891388 8.9272967 0 6 C0 4.02 0 2.04 0 0 Z " fill="#EEC434" transform="translate(466,455)"/>
<path d="M0 0 C0.90105469 0.00902344 1.80210937 0.01804687 2.73046875 0.02734375 C3.41753906 0.03894531 4.10460937 0.05054688 4.8125 0.0625 C5.4396777 8.05901568 5.4396777 8.05901568 2.9375 12.0625 C-0.00990227 14.83652567 -1.67079467 15.23458462 -5.625 15.3125 C-6.40746094 15.33828125 -7.18992187 15.3640625 -7.99609375 15.390625 C-10.1875 15.0625 -10.1875 15.0625 -11.94140625 13.76171875 C-14.06653959 10.86380965 -13.67175388 8.51280892 -13.1875 5.0625 C-9.13170063 0.89708443 -5.66908585 -0.07362449 0 0 Z " fill="#F5F7F8" transform="translate(424.1875,567.9375)"/>
<path d="M0 0 C2 3.75 2 3.75 2 6 C1.28199219 6.01417969 0.56398438 6.02835937 -0.17578125 6.04296875 C-8.3970723 6.42178291 -15.75692792 8.05468376 -23.63793945 10.36010742 C-24.41999756 10.5841626 -25.20205566 10.80821777 -26.0078125 11.0390625 C-26.70535645 11.24740723 -27.40290039 11.45575195 -28.12158203 11.67041016 C-30 12 -30 12 -33 11 C-32.34 11 -31.68 11 -31 11 C-31 10.34 -31 9.68 -31 9 C-34.3 9.66 -37.6 10.32 -41 11 C-41 12.32 -41 13.64 -41 15 C-44.3 15 -47.6 15 -51 15 C-48.19001595 9.3800319 -35.68852738 6.94269531 -30 5 C-20.20200613 2.09273576 -10.21728994 0.40067804 0 0 Z " fill="#E9B426" transform="translate(596,456)"/>
<path d="M0 0 C0.56170898 0.32597168 1.12341797 0.65194336 1.70214844 0.98779297 C4.27268991 2.12012031 5.97137519 2.23113622 8.765625 2.1953125 C9.65507813 2.18886719 10.54453125 2.18242188 11.4609375 2.17578125 C12.38132812 2.15902344 13.30171875 2.14226563 14.25 2.125 C15.65378906 2.11146484 15.65378906 2.11146484 17.0859375 2.09765625 C19.39088657 2.07413636 21.6953116 2.04126853 24 2 C24 4.31 24 6.62 24 9 C18.99800512 10.99762712 14.73118081 11.30547962 9.4375 11.25 C8.69564453 11.25773438 7.95378906 11.26546875 7.18945312 11.2734375 C3.00946582 11.25854885 -0.18209028 10.90517475 -4 9 C-3.1875 7.0625 -3.1875 7.0625 -2 5 C-1.01 4.67 -0.02 4.34 1 4 C0.67 2.68 0.34 1.36 0 0 Z " fill="#263448" transform="translate(528,580)"/>
<path d="M0 0 C7.78027114 5.08710036 9.08092255 11.29859292 11 20 C9.35 20 7.7 20 6 20 C5.67 21.65 5.34 23.3 5 25 C3 22 3 22 3 20 C2.34 20 1.68 20 1 20 C0.67 20.66 0.34 21.32 0 22 C-0.99 21.34 -1.98 20.68 -3 20 C-2.34 18.02 -1.68 16.04 -1 14 C-1.66 14 -2.32 14 -3 14 C-3.33 14.66 -3.66 15.32 -4 16 C-4.25153688 9.71157812 -3.51233939 5.26850908 0 0 Z " fill="#082E54" transform="translate(471,428)"/>
<path d="M0 0 C4.45850936 0.79616239 5.90783917 1.93313458 8.5 5.625 C8.5 7.935 8.5 10.245 8.5 12.625 C2.56 12.625 -3.38 12.625 -9.5 12.625 C-8.5 5.625 -8.5 5.625 -6.375 2.6875 C-3.5 0.625 -3.5 0.625 0 0 Z " fill="#E9EDEF" transform="translate(534.5,549.375)"/>
<path d="M0 0 C-4.96511405 2.68943678 -10.01486232 4.80948051 -15.3125 6.75 C-29.34503156 11.93096185 -42.85622831 17.53386935 -55.77734375 25.1171875 C-58.15940862 26.50889085 -60.51221518 27.81534056 -63 29 C-52.42996669 17.37296336 -16.2253042 -6.04007675 0 0 Z " fill="#29A47B" transform="translate(592,466)"/>
<path d="M0 0 C1.60294922 0.04060547 1.60294922 0.04060547 3.23828125 0.08203125 C4.04652344 0.11683594 4.85476563 0.15164063 5.6875 0.1875 C5.6875 0.5175 5.6875 0.8475 5.6875 1.1875 C2.0575 1.1875 -1.5725 1.1875 -5.3125 1.1875 C-5.3125 2.8375 -5.3125 4.4875 -5.3125 6.1875 C-6.84375 8.42578125 -6.84375 8.42578125 -8.8125 10.5 C-9.4621875 11.19738281 -10.111875 11.89476562 -10.78125 12.61328125 C-11.2865625 13.13277344 -11.791875 13.65226563 -12.3125 14.1875 C-13.3025 13.8575 -14.2925 13.5275 -15.3125 13.1875 C-16.3025 13.6825 -16.3025 13.6825 -17.3125 14.1875 C-17.9725 13.5275 -18.6325 12.8675 -19.3125 12.1875 C-21.42070797 12.5060177 -21.42070797 12.5060177 -23.3125 13.1875 C-26.3125 9.5625 -26.3125 9.5625 -26.3125 6.1875 C-23.42015685 5.36111624 -21.42507569 5.1875 -18.3125 5.1875 C-18.3125 4.5275 -18.3125 3.8675 -18.3125 3.1875 C-18.9725 2.8575 -19.6325 2.5275 -20.3125 2.1875 C-18.9925 2.5175 -17.6725 2.8475 -16.3125 3.1875 C-15.9825 4.5075 -15.6525 5.8275 -15.3125 7.1875 C-14.6525 7.1875 -13.9925 7.1875 -13.3125 7.1875 C-12.9721875 6.2903125 -12.9721875 6.2903125 -12.625 5.375 C-9.65259744 0.42099573 -5.43410695 -0.17914638 0 0 Z " fill="#212E44" transform="translate(379.3125,542.8125)"/>
<path d="M0 0 C0 7.26 0 14.52 0 22 C-0.33 22 -0.66 22 -1 22 C-1.77916092 16.97874074 -2.13016601 13.02296004 -1 8 C-1.66 8 -2.32 8 -3 8 C-3.33 8.66 -3.66 9.32 -4 10 C-6.32495277 10.38749213 -8.6599583 10.71758117 -11 11 C-11.99 11.33 -12.98 11.66 -14 12 C-15.39439664 12.06665376 -16.79169875 12.08538199 -18.1875 12.0625 C-20.0746875 12.0315625 -20.0746875 12.0315625 -22 12 C-22.33 10.35 -22.66 8.7 -23 7 C-21.37191406 6.49339844 -21.37191406 6.49339844 -19.7109375 5.9765625 C-18.26561539 5.52607249 -16.82030343 5.07554993 -15.375 4.625 C-14.66214844 4.40328125 -13.94929687 4.1815625 -13.21484375 3.953125 C-9.97808145 2.94349272 -6.75302041 1.91693011 -3.5390625 0.8359375 C-1 0 -1 0 0 0 Z " fill="#03111C" transform="translate(596,418)"/>
<path d="M0 0 C8.54076441 1.67765015 16.72564036 4.34002181 25 7 C25 7.66 25 8.32 25 9 C23.78441406 9.42152344 22.56882812 9.84304688 21.31640625 10.27734375 C19.73171808 10.83057808 18.14708552 11.38397172 16.5625 11.9375 C15.76005859 12.21529297 14.95761719 12.49308594 14.13085938 12.77929688 C13.36708984 13.04677734 12.60332031 13.31425781 11.81640625 13.58984375 C11.10943604 13.83597412 10.40246582 14.08210449 9.67407227 14.33569336 C7.99317368 14.87467975 7.99317368 14.87467975 7 16 C-5.96986928 17.11764405 -20.25076472 15.36649685 -33 13 C-33 12.67 -33 12.34 -33 12 C-25.41 12 -17.82 12 -10 12 C-10 12.66 -10 13.32 -10 14 C-8.06183265 13.8858134 -6.12444901 13.75826577 -4.1875 13.625 C-3.10855469 13.55539062 -2.02960937 13.48578125 -0.91796875 13.4140625 C2.18626186 13.18804267 2.18626186 13.18804267 5 11 C5.99 11.33 6.98 11.66 8 12 C10.24640499 11.50593492 10.24640499 11.50593492 12.5625 10.625 C13.34753906 10.34914063 14.13257813 10.07328125 14.94140625 9.7890625 C17.01934231 9.03093872 17.01934231 9.03093872 19 8 C13.84083883 5.74085416 13.84083883 5.74085416 8.375 5.0625 C4.79409646 4.9682657 2.7734511 3.12846248 0 1 C0 0.67 0 0.34 0 0 Z " fill="#2688B4" transform="translate(607,397)"/>
<path d="M0 0 C6.20583158 1.97010526 12.09851546 4.25155448 18 7 C18 8.32 18 9.64 18 11 C17.34 11 16.68 11 16 11 C15.67 11.99 15.34 12.98 15 14 C13.35 13.01 11.7 12.02 10 11 C9.67 11.66 9.34 12.32 9 13 C7.35 11.68 5.7 10.36 4 9 C3.71125 9.763125 3.4225 10.52625 3.125 11.3125 C2 14 2 14 0 17 C0 11.39 0 5.78 0 0 Z " fill="#041022" transform="translate(467,420)"/>
<path d="M0 0 C0.57105469 0.32355469 1.14210938 0.64710938 1.73046875 0.98046875 C0.74046875 2.46546875 0.74046875 2.46546875 -0.26953125 3.98046875 C1.05046875 4.64046875 2.37046875 5.30046875 3.73046875 5.98046875 C3.35546875 8.41796875 3.35546875 8.41796875 2.73046875 10.98046875 C1.74046875 11.47546875 1.74046875 11.47546875 0.73046875 11.98046875 C0.21484375 11.32046875 -0.30078125 10.66046875 -0.83203125 9.98046875 C-4.10651731 7.29371096 -6.13523261 7.60462342 -10.26953125 7.98046875 C-11.25953125 8.31046875 -12.24953125 8.64046875 -13.26953125 8.98046875 C-13.35203125 8.19671875 -13.43453125 7.41296875 -13.51953125 6.60546875 C-13.99759464 3.83297771 -13.99759464 3.83297771 -16.33203125 2.66796875 C-16.97140625 2.44109375 -17.61078125 2.21421875 -18.26953125 1.98046875 C-12.44711116 -0.99268193 -6.27010399 -2.81669043 0 0 Z " fill="#1B293F" transform="translate(541.26953125,543.01953125)"/>
<path d="M0 0 C0.66 0 1.32 0 2 0 C2 19.47 2 38.94 2 59 C-0.64 59 -3.28 59 -6 59 C-6 58.34 -6 57.68 -6 57 C-4.02 57 -2.04 57 0 57 C0 38.19 0 19.38 0 0 Z " fill="#323D4B" transform="translate(639,531)"/>
<path d="M0 0 C7.52046844 1.35102912 13.91471826 3.94420458 20.8125 7.1875 C21.87549316 7.68145264 22.93848633 8.17540527 24.03369141 8.68432617 C32.30631513 12.57303073 40.09809856 16.84877765 47.7890625 21.79296875 C48.68367187 22.35628906 49.57828125 22.91960937 50.5 23.5 C51.2734375 24.0053125 52.046875 24.510625 52.84375 25.03125 C54.93506093 26.18628855 54.93506093 26.18628855 57.140625 25.78515625 C59.68195512 24.71203156 61.16941566 23.02671838 63 21 C63 21.66 63 22.32 63 23 C63.66 23.33 64.32 23.66 65 24 C63.5 26 63.5 26 61 28 C53.9435285 28.84096627 50.06037031 26.85087256 44.1875 23.125 C42.51094463 22.11025149 40.83250324 21.09861356 39.15234375 20.08984375 C38.3001123 19.57405762 37.44788086 19.05827148 36.56982422 18.52685547 C24.8627476 11.57112137 12.77737816 5.69840811 0 1 C0 0.67 0 0.34 0 0 Z " fill="#66AC95" transform="translate(464,472)"/>
<path d="M0 0 C2.875 -0.125 2.875 -0.125 6 0 C6.66 0.66 7.32 1.32 8 2 C8.99 2 9.98 2 11 2 C11 1.34 11 0.68 11 0 C11.99 0.33 12.98 0.66 14 1 C13.67 2.32 13.34 3.64 13 5 C18.3599996 7.41250727 18.3599996 7.41250727 24 9 C23.67 9.804375 23.34 10.60875 23 11.4375 C21.93940959 13.69681125 21.93940959 13.69681125 22 15 C19.9375 15.375 19.9375 15.375 17 15 C15.25064118 13.69138873 13.71181906 12.22303549 12.11328125 10.734375 C8.16204196 7.49158342 3.53691211 5.31357905 -1 3 C-0.67 2.01 -0.34 1.02 0 0 Z " fill="#0A4774" transform="translate(498,464)"/>
<path d="M0 0 C1.32 0.66 2.64 1.32 4 2 C3.67 2.66 3.34 3.32 3 4 C2.960008 5.99960012 2.95653201 8.00047242 3 10 C2.34 9.34 1.68 8.68 1 8 C0.236875 8.66 -0.52625 9.32 -1.3125 10 C-5.7817563 13.05847901 -10.80920149 12.33250667 -16 12 C-16.33 11.34 -16.66 10.68 -17 10 C-14.36 8.68 -11.72 7.36 -9 6 C-9.66 5.34 -10.32 4.68 -11 4 C-10.37351562 3.87882813 -9.74703125 3.75765625 -9.1015625 3.6328125 C-8.28429687 3.46523438 -7.46703125 3.29765625 -6.625 3.125 C-5.81289063 2.96257813 -5.00078125 2.80015625 -4.1640625 2.6328125 C-1.81326077 2.13341068 -1.81326077 2.13341068 0 0 Z " fill="#2A384C" transform="translate(427,579)"/>
<path d="M0 0 C0.99 0 1.98 0 3 0 C3 1.98 3 3.96 3 6 C7.2051632 6.23540536 7.2051632 6.23540536 11.125 4.9375 C13 4 13 4 15.25 4.375 C15.8275 4.58125 16.405 4.7875 17 5 C17 7.33333333 17 9.66666667 17 12 C9.95188357 14.03612253 5.28987948 11.28711604 -1 8 C-0.67 5.36 -0.34 2.72 0 0 Z " fill="#0A4477" transform="translate(477,448)"/>
<path d="M0 0 C9.27382224 2.48877688 18.10164946 5.39335958 27 9 C27 9.33 27 9.66 27 10 C25.02 10 23.04 10 21 10 C21 9.34 21 8.68 21 8 C20.01 8.33 19.02 8.66 18 9 C18.33 9.66 18.66 10.32 19 11 C16.39546825 10.35561067 13.7913709 9.7095496 11.1875 9.0625 C10.44951172 8.88009766 9.71152344 8.69769531 8.95117188 8.50976562 C5.92939016 7.7577385 2.95543282 6.98514427 0 6 C0 4.02 0 2.04 0 0 Z " fill="#E3C44E" transform="translate(466,455)"/>
<path d="M0 0 C0.33 0 0.66 0 1 0 C3.2054634 10.04273512 3.20430975 19.78451249 3 30 C-1.83855385 30.03998805 -6.23013567 29.95397287 -11 29 C-11.26618595 22.04958914 -10.6120509 15.76485645 -9 9 C-8.67 9 -8.34 9 -8 9 C-7.87963336 14.77759884 -8.1679418 20.27959989 -9 26 C-8.01 26 -7.02 26 -6 26 C-6 26.66 -6 27.32 -6 28 C-3.69 28 -1.38 28 1 28 C0.9278125 26.90042969 0.855625 25.80085938 0.78125 24.66796875 C0.25836933 16.43516132 -0.16045021 8.25427174 0 0 Z " fill="#F2CD55" transform="translate(616,463)"/>
<path d="M0 0 C2.475 0.495 2.475 0.495 5 1 C5 1.66 5 2.32 5 3 C5.556875 3.12375 6.11375 3.2475 6.6875 3.375 C12.15650092 4.85310836 14.57396164 6.3925691 18 11 C18.66 11.33 19.32 11.66 20 12 C19.67 12.99 19.34 13.98 19 15 C18.34 15 17.68 15 17 15 C17 15.66 17 16.32 17 17 C17.66 17 18.32 17 19 17 C19 17.99 19 18.98 19 20 C19.66 20.33 20.32 20.66 21 21 C20.34 21.66 19.68 22.32 19 23 C18.64808594 22.43152344 18.29617188 21.86304688 17.93359375 21.27734375 C14.45549265 15.8377026 10.70609088 11.39893344 6 7 C1.14962594 2.29925187 1.14962594 2.29925187 0 0 Z " fill="#EABD2D" transform="translate(504,474)"/>
<path d="M0 0 C1 1 1 1 1.09765625 2.84765625 C1.04882812 5.92382812 1.04882812 5.92382812 1 9 C-0.60341555 9.33692785 -2.20776555 9.66941093 -3.8125 10 C-4.70582031 10.185625 -5.59914063 10.37125 -6.51953125 10.5625 C-9 11 -9 11 -12 11 C-11.835 10.4225 -11.67 9.845 -11.5 9.25 C-10.85537969 6.73335631 -10.85537969 6.73335631 -11 3 C-7.79259734 -0.59229097 -4.59475087 -0.34677365 0 0 Z " fill="#1F2B43" transform="translate(472,543)"/>
<path d="M0 0 C0.33 0 0.66 0 1 0 C1 12.21 1 24.42 1 37 C0.01 37 -0.98 37 -2 37 C-2 25.45 -2 13.9 -2 2 C-1.34 2 -0.68 2 0 2 C0 1.34 0 0.68 0 0 Z " fill="#2B2C2D" transform="translate(613,413)"/>
<path d="M0 0 C3.63 0 7.26 0 11 0 C11 2.31 11 4.62 11 7 C5.64127009 8.7862433 -0.00330642 8.95841292 -5.125 6.5 C-5.74375 6.005 -6.3625 5.51 -7 5 C-6.34 4.67 -5.68 4.34 -5 4 C-4.01 4.33 -3.02 4.66 -2 5 C-1.34 3.35 -0.68 1.7 0 0 Z " fill="#2D3C50" transform="translate(497,583)"/>
<path d="M0 0 C0 0.66 0 1.32 0 2 C-0.66 2 -1.32 2 -2 2 C-2 2.66 -2 3.32 -2 4 C-4.72379681 5.34538144 -7.45313508 6.67641535 -10.1875 8 C-10.95642578 8.3815625 -11.72535156 8.763125 -12.51757812 9.15625 C-19.60599841 12.56355932 -19.60599841 12.56355932 -24 12 C-24 11.01 -24 10.02 -24 9 C-20.59768808 6.09558739 -18.62811903 5.04052381 -14.125 4.75 C-13.09375 4.8325 -12.0625 4.915 -11 5 C-10.67 4.01 -10.34 3.02 -10 2 C-6.75515269 -0.28341107 -3.87540045 -0.17615457 0 0 Z " fill="#F6BB20" transform="translate(565,465)"/>
<path d="M0 0 C-0.94875 0.268125 -1.8975 0.53625 -2.875 0.8125 C-6.25267273 1.74986588 -6.25267273 1.74986588 -8 5 C-10.5625 5.625 -10.5625 5.625 -13 6 C-13.33 6.33 -13.66 6.66 -14 7 C-13.01 7.33 -12.02 7.66 -11 8 C-11 8.66 -11 9.32 -11 10 C-9.35 10 -7.7 10 -6 10 C-6 10.66 -6 11.32 -6 12 C-5.195625 12.12375 -4.39125 12.2475 -3.5625 12.375 C-2.716875 12.58125 -1.87125 12.7875 -1 13 C-0.67 13.66 -0.34 14.32 0 15 C-7.86379677 12.81659819 -15.41675284 10.00714974 -23 7 C-23 6.34 -23 5.68 -23 5 C-22.13117188 4.73445313 -21.26234375 4.46890625 -20.3671875 4.1953125 C-19.21476562 3.84210938 -18.06234375 3.48890625 -16.875 3.125 C-15.73804688 2.77695312 -14.60109375 2.42890625 -13.4296875 2.0703125 C-11.17981229 1.36818743 -8.94166257 0.62706205 -6.71875 -0.15625 C-3.9091557 -1.02819306 -2.70093186 -1.03881995 0 0 Z " fill="#34ACCB" transform="translate(453,399)"/>
<path d="M0 0 C6.92545479 1.20274521 13.39713828 2.9793792 20 5.375 C20.86850586 5.68445557 21.73701172 5.99391113 22.63183594 6.31274414 C28.47462108 8.40814448 34.28348926 10.57800466 40 13 C36.72079119 14.95881942 36.23826396 15.05559492 32.25 14.125 C31.1775 13.75375 30.105 13.3825 29 13 C29 12.01 29 11.02 29 10 C28.2575 10.20625 27.515 10.4125 26.75 10.625 C23.56648274 11.05911599 22.72678617 10.53381722 20 9 C18.34178227 8.62690101 16.67422986 8.29299023 15 8 C12.75 7.5625 12.75 7.5625 11 7 C10.67 6.34 10.34 5.68 10 5 C8.66961551 4.6550855 7.33542939 4.32483418 6 4 C3.98473831 3.03112419 1.98166034 2.0358679 0 1 C0 0.67 0 0.34 0 0 Z " fill="#2098BF" transform="translate(566,383)"/>
<path d="M0 0 C0.04254356 1.99954746 0.04080783 4.00041636 0 6 C-0.33 6.33 -0.66 6.66 -1 7 C-4.3 7 -7.6 7 -11 7 C-11 16.24 -11 25.48 -11 35 C-11.33 35 -11.66 35 -12 35 C-12 25.43 -12 15.86 -12 6 C-11.34 5.67 -10.68 5.34 -10 5 C-10.66 4.67 -11.32 4.34 -12 4 C-11.67 3.01 -11.34 2.02 -11 1 C-3.375 0 -3.375 0 0 0 Z " fill="#4E596D" transform="translate(508,544)"/>
<path d="M0 0 C9.84117689 -0.25709896 19.47142137 0.54957064 29.25 1.5 C30.78510809 1.64504192 32.3202642 1.78957648 33.85546875 1.93359375 C37.57088312 2.2832292 41.28560504 2.63967686 45 3 C45 3.66 45 4.32 45 5 C21.00286626 4.28271022 21.00286626 4.28271022 9.5625 3.0625 C8.81887207 2.98789551 8.07524414 2.91329102 7.30908203 2.83642578 C2.2484879 2.2484879 2.2484879 2.2484879 0 0 Z " fill="#021C33" transform="translate(568,410)"/>
<path d="M0 0 C-2.06329626 2.25230957 -3.86429847 3.58242984 -6.66015625 4.796875 C-7.72085327 5.27060547 -7.72085327 5.27060547 -8.80297852 5.75390625 C-9.54862061 6.08261719 -10.2942627 6.41132813 -11.0625 6.75 C-17.91504404 9.85666116 -24.06061802 13.33021564 -30 18 C-30.66 17.67 -31.32 17.34 -32 17 C-26.00128227 11.60416848 -19.62828041 7.40016017 -12.625 3.4375 C-11.84012207 2.98391113 -11.05524414 2.53032227 -10.24658203 2.06298828 C-9.49747559 1.64903809 -8.74836914 1.23508789 -7.9765625 0.80859375 C-6.97230225 0.24869751 -6.97230225 0.24869751 -5.94775391 -0.32250977 C-3.57779078 -1.14685768 -2.3331229 -0.81662554 0 0 Z " fill="#2AA57D" transform="translate(561,477)"/>
<path d="M0 0 C2 3.75 2 3.75 2 6 C-2.95 6.33 -7.9 6.66 -13 7 C-13 6.34 -13 5.68 -13 5 C-9.04 5 -5.08 5 -1 5 C-1 4.34 -1 3.68 -1 3 C-3.29199177 3.14063135 -5.58359186 3.28765943 -7.875 3.4375 C-9.15117188 3.51871094 -10.42734375 3.59992188 -11.7421875 3.68359375 C-14.88300152 3.79206027 -14.88300152 3.79206027 -17 5 C-18.54023996 5.06950541 -20.08334988 5.08452357 -21.625 5.0625 C-22.85089844 5.04896484 -22.85089844 5.04896484 -24.1015625 5.03515625 C-25.04128906 5.01775391 -25.04128906 5.01775391 -26 5 C-18.79783437 0.19855625 -8.4251287 0.55873454 0 0 Z " fill="#E6B535" transform="translate(596,456)"/>
<path d="M0 0 C-3.63121806 6.91660582 -10.59722368 12.53240789 -18 15 C-16.57442379 11.82096506 -14.8226848 9.46341568 -12.5 6.875 C-11.8915625 6.19179688 -11.283125 5.50859375 -10.65625 4.8046875 C-4.28189911 -2.14094955 -4.28189911 -2.14094955 0 0 Z " fill="#F5FAE8" transform="translate(545,480)"/>
<path d="M0 0 C0 0.66 0 1.32 0 2 C-3.96 2 -7.92 2 -12 2 C-12.33 2.99 -12.66 3.98 -13 5 C-16.63 5.33 -20.26 5.66 -24 6 C-23.67 4.68 -23.34 3.36 -23 2 C-15.26134446 -0.13480153 -7.99976044 -0.20483028 0 0 Z " fill="#F3B91C" transform="translate(595,459)"/>
<path d="M0 0 C0 6.6 0 13.2 0 20 C-0.33 20 -0.66 20 -1 20 C-1.77916092 14.97874074 -2.13016601 11.02296004 -1 6 C-1.66 6 -2.32 6 -3 6 C-3.33 6.66 -3.66 7.32 -4 8 C-6.31 8 -8.62 8 -11 8 C-10.34 7.67 -9.68 7.34 -9 7 C-9.33 5.68 -9.66 4.36 -10 3 C-3.375 0 -3.375 0 0 0 Z " fill="#020610" transform="translate(596,420)"/>
<path d="M0 0 C0 0.66 0 1.32 0 2 C-1.12535156 2.09796875 -2.25070312 2.1959375 -3.41015625 2.296875 C-12.62696041 3.17163901 -21.19752377 4.58780931 -30.05859375 7.29296875 C-33 8 -33 8 -36 7 C-24.84589873 0.80327707 -12.60166372 -0.23336414 0 0 Z " fill="#1F180D" transform="translate(596,455)"/>
<path d="M0 0 C-2.62579045 1.75052696 -4.4906969 2.61799195 -7.4296875 3.5859375 C-8.73800537 4.01990845 -8.73800537 4.01990845 -10.07275391 4.46264648 C-10.99749512 4.76372314 -11.92223633 5.0647998 -12.875 5.375 C-13.81649902 5.68445557 -14.75799805 5.99391113 -15.72802734 6.31274414 C-18.4832792 7.21503366 -21.24096872 8.10934184 -24 9 C-24.72896484 9.23605957 -25.45792969 9.47211914 -26.20898438 9.71533203 C-36.40540541 13 -36.40540541 13 -40 13 C-40 12.34 -40 11.68 -40 11 C-39.21753906 10.79503906 -38.43507813 10.59007812 -37.62890625 10.37890625 C-36.61699219 10.10949219 -35.60507812 9.84007812 -34.5625 9.5625 C-33.55316406 9.29566406 -32.54382813 9.02882813 -31.50390625 8.75390625 C-29.08247999 8.24021923 -29.08247999 8.24021923 -28 7 C-26.00041636 6.95919217 -23.99954746 6.95745644 -22 7 C-22 6.34 -22 5.68 -22 5 C-18.04 4.34 -14.08 3.68 -10 3 C-10 2.34 -10 1.68 -10 1 C-6.59437148 0.22157062 -3.49234244 -0.09978121 0 0 Z " fill="#1D8AB5" transform="translate(576,424)"/>
<path d="M0 0 C7.59 0 15.18 0 23 0 C23 0.66 23 1.32 23 2 C24.10408203 1.85691406 24.10408203 1.85691406 25.23046875 1.7109375 C26.20628906 1.60007812 27.18210937 1.48921875 28.1875 1.375 C29.63189453 1.20097656 29.63189453 1.20097656 31.10546875 1.0234375 C34.24075323 0.99805058 36.19486535 1.65640717 39 3 C39 3.33 39 3.66 39 4 C31.49945692 4.12307929 24.15129104 3.79181014 16.6875 3.0625 C15.73810547 2.97548828 14.78871094 2.88847656 13.81054688 2.79882812 C9.16996353 2.36164826 4.58676128 1.85281491 0 1 C0 0.67 0 0.34 0 0 Z " fill="#237BA8" transform="translate(574,409)"/>
<path d="M0 0 C3.96 0 7.92 0 12 0 C10.68 0.99 9.36 1.98 8 3 C8.33 3.66 8.66 4.32 9 5 C8.01 6.485 8.01 6.485 7 8 C4.03 7.67 1.06 7.34 -2 7 C-1.34 4.69 -0.68 2.38 0 0 Z " fill="#1B273D" transform="translate(374,544)"/>
<path d="M0 0 C2.05257931 3.44833324 3.0632763 5.31661591 2.6875 9.375 C2.460625 10.24125 2.23375 11.1075 2 12 C1.34 12 0.68 12 0 12 C0 9.69 0 7.38 0 5 C-1.32 5 -2.64 5 -4 5 C-3.81566406 5.52078125 -3.63132812 6.0415625 -3.44140625 6.578125 C-2.85009003 9.82251486 -3.38617518 12.50691281 -3.9375 15.75 C-4.13214844 16.92046875 -4.32679688 18.0909375 -4.52734375 19.296875 C-4.76130859 20.63492187 -4.76130859 20.63492187 -5 22 C-5.33 22 -5.66 22 -6 22 C-6.08103404 19.08277452 -6.14051081 16.16780484 -6.1875 13.25 C-6.21263672 12.425 -6.23777344 11.6 -6.26367188 10.75 C-6.3373794 4.65684484 -6.3373794 4.65684484 -4.67578125 1.421875 C-3 0 -3 0 0 0 Z " fill="#EABE43" transform="translate(614,450)"/>
<path d="M0 0 C6.70126536 -0.48736475 11.06561592 0.92291196 17 4 C17 5.32 17 6.64 17 8 C15.68 8 14.36 8 13 8 C13 7.34 13 6.68 13 6 C12.154375 6.103125 11.30875 6.20625 10.4375 6.3125 C5.9368327 5.90334843 3.31158468 3.98826429 0 1 C0 0.67 0 0.34 0 0 Z " fill="#020A15" transform="translate(468,423)"/>
<path d="M0 0 C2.31 0 4.62 0 7 0 C6.67 0.99 6.34 1.98 6 3 C6 2.34 6 1.68 6 1 C3.89747608 2.11285079 3.89747608 2.11285079 2 4 C1.54792796 6.61432463 1.54792796 6.61432463 1.8125 9.6875 C2.02913651 16.77674297 1.82317101 23.78977576 1.5 30.875 C1.45206299 31.96385498 1.40412598 33.05270996 1.35473633 34.17456055 C1.23909806 36.7831689 1.12087099 39.39162973 1 42 C0.67 42 0.34 42 0 42 C0 28.14 0 14.28 0 0 Z " fill="#151E31" transform="translate(330,544)"/>
<path d="M0 0 C2.8125 -0.25 2.8125 -0.25 6 0 C7.875 1.8125 7.875 1.8125 9 4 C9 4.99 9 5.98 9 7 C10.32 7 11.64 7 13 7 C14.703125 8.75 14.703125 8.75 16.25 11 C16.77078125 11.7425 17.2915625 12.485 17.828125 13.25 C18.21484375 13.8275 18.6015625 14.405 19 15 C15.76840889 13.50334145 13.00630936 11.64942968 10.125 9.5625 C6.51373583 6.99828876 3.03806877 4.80650445 -1 3 C-0.67 2.01 -0.34 1.02 0 0 Z " fill="#284A55" transform="translate(498,464)"/>
<path d="M0 0 C0.66 0.33 1.32 0.66 2 1 C1.030625 1.61875 0.06125 2.2375 -0.9375 2.875 C-4.02835362 4.65678846 -4.02835362 4.65678846 -5 7 C-7.31 7 -9.62 7 -12 7 C-12 7.66 -12 8.32 -12 9 C-12.66 9 -13.32 9 -14 9 C-14 9.66 -14 10.32 -14 11 C-16.97 11.66 -19.94 12.32 -23 13 C-19.31777431 8.52578722 -14.5154945 6.56977394 -9.375 4.1875 C-8.50359375 3.76791016 -7.6321875 3.34832031 -6.734375 2.91601562 C-1.91379831 0.65124005 -1.91379831 0.65124005 0 0 Z " fill="#FDF2C6" transform="translate(563,468)"/>
<path d="M0 0 C0.33 0 0.66 0 1 0 C1 9.9 1 19.8 1 30 C-1.64 30 -4.28 30 -7 30 C-7 29.34 -7 28.68 -7 28 C-6.38125 27.855625 -5.7625 27.71125 -5.125 27.5625 C-2.96741678 27.06847775 -2.96741678 27.06847775 -1 26 C-0.67 17.42 -0.34 8.84 0 0 Z " fill="#152235" transform="translate(456,560)"/>
<path d="M0 0 C0.74765625 0.44472656 1.4953125 0.88945312 2.265625 1.34765625 C3.25046875 1.91355469 4.2353125 2.47945313 5.25 3.0625 C6.22453125 3.63097656 7.1990625 4.19945312 8.203125 4.78515625 C10.83397149 6.19064509 10.83397149 6.19064509 13.21875 5.8125 C15.6832348 4.68834904 17.20067052 2.99211478 19 1 C19 1.66 19 2.32 19 3 C19.66 3.33 20.32 3.66 21 4 C18.62153605 7.17128526 17.33765238 7.94178407 13.375 8.625 C7.79221741 8.39326185 3.47049055 5.07804267 -1 2 C-0.67 1.34 -0.34 0.68 0 0 Z " fill="#58A693" transform="translate(508,492)"/>
<path d="M0 0 C19.76465442 -0.45669291 19.76465442 -0.45669291 29 2 C29.33 2.66 29.66 3.32 30 4 C23.36507139 4.18956939 17.06015881 3.45561368 10.5 2.5 C9.48679687 2.35691406 8.47359375 2.21382813 7.4296875 2.06640625 C4.95238218 1.71584418 2.47590863 1.36027153 0 1 C0 0.67 0 0.34 0 0 Z " fill="#2189B3" transform="translate(540,405)"/>
<path d="M0 0 C0.66 0.33 1.32 0.66 2 1 C0.68 2.32 -0.64 3.64 -2 5 C-1.01 5.66 -0.02 6.32 1 7 C-0.65 7.99 -2.3 8.98 -4 10 C-3.67 8.68 -3.34 7.36 -3 6 C-4.97536745 6.34786708 -4.97536745 6.34786708 -7 7 C-7.33 7.66 -7.66 8.32 -8 9 C-9.65071396 10.02611949 -11.31970006 11.02308143 -13 12 C-14.34631825 12.98244845 -15.68441297 13.97676564 -17 15 C-17.66 14.67 -18.32 14.34 -19 14 C-16.77363942 12.2255394 -14.54408033 10.45537533 -12.3125 8.6875 C-11.68666016 8.18798828 -11.06082031 7.68847656 -10.41601562 7.17382812 C-3.63947631 1.81645935 -3.63947631 1.81645935 0 0 Z " fill="#E1B636" transform="translate(543,471)"/>
<path d="M0 0 C1.32 0.66 2.64 1.32 4 2 C3.67 3.65 3.34 5.3 3 7 C0.03 7.66 -2.94 8.32 -6 9 C-6.33 8.34 -6.66 7.68 -7 7 C-5.625 5.5 -5.625 5.5 -4 4 C-3.34 4 -2.68 4 -2 4 C-1.34 2.68 -0.68 1.36 0 0 Z " fill="#0F325B" transform="translate(567,451)"/>
<path d="M0 0 C5.17270953 1.27187028 9.12712975 3.01464943 13.6875 5.875 C14.78449219 6.55304688 15.88148438 7.23109375 17.01171875 7.9296875 C19.67315585 9.77355896 21.81308667 11.62685317 24 14 C21.5625 13.625 21.5625 13.625 19 13 C18.67 12.34 18.34 11.68 18 11 C16.01111799 9.89855315 13.9837464 8.86581405 11.9375 7.875 C10.28041016 7.06675781 10.28041016 7.06675781 8.58984375 6.2421875 C7.30787109 5.62730469 7.30787109 5.62730469 6 5 C6 4.34 6 3.68 6 3 C4.35 3 2.7 3 1 3 C0.67 2.01 0.34 1.02 0 0 Z " fill="#FEF7C4" transform="translate(484,466)"/>
<path d="M0 0 C1.32 0 2.64 0 4 0 C4 0.66 4 1.32 4 2 C5.27875 1.979375 6.5575 1.95875 7.875 1.9375 C11.75 1.875 11.75 1.875 14 3 C14 3.99 14 4.98 14 6 C12 6.8125 12 6.8125 9 7 C5.48580984 5.34859485 1.77517799 3.55035599 0 0 Z " fill="#F1C730" transform="translate(483,463)"/>
<path d="M0 0 C0 0.33 0 0.66 0 1 C-3.63 1 -7.26 1 -11 1 C-11 1.66 -11 2.32 -11 3 C-13.31 3 -15.62 3 -18 3 C-18 3.66 -18 4.32 -18 5 C-24.435 5.495 -24.435 5.495 -31 6 C-27.6372632 3.75817547 -24.42429244 2.84675823 -20.5625 1.875 C-19.50192383 1.60671387 -19.50192383 1.60671387 -18.41992188 1.33300781 C-12.24124773 -0.12948269 -6.34201498 -0.43241011 0 0 Z " fill="#F8E7AD" transform="translate(597,462)"/>
<path d="M0 0 C7.875 0.875 7.875 0.875 9 2 C10.51469448 2.23192865 12.03754562 2.41215238 13.5625 2.5625 C14.38878906 2.64628906 15.21507812 2.73007812 16.06640625 2.81640625 C16.70449219 2.87699219 17.34257812 2.93757813 18 3 C18.33 4.65 18.66 6.3 19 8 C12.54646385 5.94235079 6.2638737 3.57616518 0 1 C0 0.67 0 0.34 0 0 Z " fill="#2D4B4F" transform="translate(478,458)"/>
<path d="M0 0 C3.44944257 -0.48225216 6.57239503 -0.70121995 10 0 C12.41945128 2.3290542 13.80779809 4.87517606 15 8 C15 8.66 15 9.32 15 10 C12.4636387 8.98545548 11.20648539 8.3146444 9.6875 6 C9.3471875 5.01 9.3471875 5.01 9 4 C9.33 3.34 9.66 2.68 10 2 C4.8306511 2.40556131 4.8306511 2.40556131 0 4 C0 2.68 0 1.36 0 0 Z " fill="#2D3647" transform="translate(597,530)"/>
<path d="M0 0 C1.98 1.65 3.96 3.3 6 5 C5.67 5.99 5.34 6.98 5 8 C4.34 8 3.68 8 3 8 C3 8.66 3 9.32 3 10 C3.66 10 4.32 10 5 10 C5 10.99 5 11.98 5 13 C5.66 13.33 6.32 13.66 7 14 C6.34 14.66 5.68 15.32 5 16 C4.01941648 14.54261898 3.04057868 13.08406325 2.0625 11.625 C1.24458984 10.40683594 1.24458984 10.40683594 0.41015625 9.1640625 C-1 7 -1 7 -2 5 C-1.01 5 -0.02 5 1 5 C0.67 3.35 0.34 1.7 0 0 Z " fill="#DDB02E" transform="translate(518,481)"/>
<path d="M0 0 C1.07765625 0.01804687 2.1553125 0.03609375 3.265625 0.0546875 C4.49539063 0.08949219 4.49539063 0.08949219 5.75 0.125 C5.75 0.455 5.75 0.785 5.75 1.125 C2.12 1.125 -1.51 1.125 -5.25 1.125 C-5.25 2.775 -5.25 4.425 -5.25 6.125 C-6.24 7.61 -6.24 7.61 -7.25 9.125 C-8.24 8.795 -9.23 8.465 -10.25 8.125 C-9.92 7.135 -9.59 6.145 -9.25 5.125 C-9.91 5.125 -10.57 5.125 -11.25 5.125 C-10.25 2.125 -10.25 2.125 -8.578125 0.9453125 C-5.61411661 -0.09905287 -3.13557132 -0.06816459 0 0 Z " fill="#30394A" transform="translate(379.25,542.875)"/>
<path d="M0 0 C1.65 0 3.3 0 5 0 C3.69983239 3.90050282 2.23996087 4.31143857 -1.3125 6.25 C-2.76076172 7.06210937 -2.76076172 7.06210937 -4.23828125 7.890625 C-7.13699811 9.05503177 -8.16529977 9.15811981 -11 8 C-10.01 8 -9.02 8 -8 8 C-7.34 6.68 -6.68 5.36 -6 4 C-4.68 4 -3.36 4 -2 4 C-2 3.34 -2 2.68 -2 2 C-1.34 2 -0.68 2 0 2 C0 1.34 0 0.68 0 0 Z " fill="#DFFBF5" transform="translate(551,475)"/>
<path d="M0 0 C0.99 0 1.98 0 3 0 C3 1.98 3 3.96 3 6 C3.66 6 4.32 6 5 6 C6.625 8 6.625 8 8 10 C5.36 9.67 2.72 9.34 0 9 C-0.84454356 5.62182575 -1.10844919 3.32534757 0 0 Z " fill="#09487E" transform="translate(477,448)"/>
<path d="M0 0 C-0.33 0.99 -0.66 1.98 -1 3 C-2.98723268 3.70381157 -4.98777953 4.3711811 -7 5 C-7.33 5.66 -7.66 6.32 -8 7 C-11.0625 7.625 -11.0625 7.625 -14 8 C-14.33 6.68 -14.66 5.36 -15 4 C-13.4221875 3.566875 -13.4221875 3.566875 -11.8125 3.125 C-8.13822169 2.11069449 -8.13822169 2.11069449 -5.25 0.875 C-3 0 -3 0 0 0 Z " fill="#0F3356" transform="translate(551,464)"/>
<path d="M0 0 C0.99 0.33 1.98 0.66 3 1 C2.44225728 4.23490776 1.62788492 5.97855006 -1 8 C-1.99 8 -2.98 8 -4 8 C-4 7.34 -4 6.68 -4 6 C-5.32 5.67 -6.64 5.34 -8 5 C-6.75 3.5 -6.75 3.5 -5 2 C-3.68 2 -2.36 2 -1 2 C-0.67 1.34 -0.34 0.68 0 0 Z " fill="#08A9D7" transform="translate(446,401)"/>
<path d="M0 0 C-1.725227 0.67679658 -3.45538939 1.34102 -5.1875 2 C-6.15042969 2.37125 -7.11335937 2.7425 -8.10546875 3.125 C-14.28747653 4.99378508 -18.23102706 3.34670086 -24 1 C-20.44957552 -0.07612423 -17.81241672 0.32638852 -14.15625 0.87890625 C-11.78821971 1.01189346 -10.02584488 0.64114287 -7.75 0 C-4.1854131 -0.95055651 -3.2811743 -1.04532987 0 0 Z " fill="#1D88AE" transform="translate(536,438)"/>
<path d="M0 0 C0.66 1.32 1.32 2.64 2 4 C2.66 3.67 3.32 3.34 4 3 C5.32 4.65 6.64 6.3 8 8 C7.21625 8.61875 6.4325 9.2375 5.625 9.875 C3.03162353 11.89858661 3.03162353 11.89858661 1 14 C1.20625 13.05125 1.4125 12.1025 1.625 11.125 C1.74875 10.09375 1.8725 9.0625 2 8 C1.34 7.34 0.68 6.68 0 6 C-0.125 2.875 -0.125 2.875 0 0 Z " fill="#2C374B" transform="translate(337,544)"/>
<path d="M0 0 C2.31 0 4.62 0 7 0 C7 3.96 7 7.92 7 12 C6.67 12 6.34 12 6 12 C5.67 10.02 5.34 8.04 5 6 C3.68 5.67 2.36 5.34 1 5 C0.67 3.35 0.34 1.7 0 0 Z " fill="#2B374D" transform="translate(489,532)"/>
<path d="M0 0 C-3.09707241 2.37954736 -6.28647028 4.56142357 -9.5625 6.6875 C-10.51253906 7.31011719 -11.46257813 7.93273437 -12.44140625 8.57421875 C-15 10 -15 10 -18 10 C-16.44066679 8.72528295 -14.87738294 7.45539786 -13.3125 6.1875 C-12.44238281 5.47980469 -11.57226562 4.77210938 -10.67578125 4.04296875 C-3.74534161 -1.2484472 -3.74534161 -1.2484472 0 0 Z " fill="#50A592" transform="translate(547,484)"/>
<path d="M0 0 C5.8022175 -0.36263859 9.63999211 0.74315457 15 3 C15 3.33 15 3.66 15 4 C13.02 4 11.04 4 9 4 C9 3.34 9 2.68 9 2 C8.01 2.33 7.02 2.66 6 3 C6.33 3.66 6.66 4.32 7 5 C5.35 4.67 3.7 4.34 2 4 C2 3.34 2 2.68 2 2 C1.34 2 0.68 2 0 2 C0 1.34 0 0.68 0 0 Z " fill="#EBC53C" transform="translate(478,461)"/>
<path d="M0 0 C0 0.66 0 1.32 0 2 C-1.15628906 2.41572266 -1.15628906 2.41572266 -2.3359375 2.83984375 C-3.33882812 3.20207031 -4.34171875 3.56429688 -5.375 3.9375 C-6.87160156 4.47697266 -6.87160156 4.47697266 -8.3984375 5.02734375 C-10.93504165 5.92349292 -10.93504165 5.92349292 -13 7 C-15.125 6.0625 -15.125 6.0625 -17 5 C-16.01 4.01 -15.02 3.02 -14 2 C-13.01 2.33 -12.02 2.66 -11 3 C-8.75360973 2.46830678 -8.75360973 2.46830678 -6.4375 1.5625 C-2.17040359 0 -2.17040359 0 0 0 Z " fill="#238CBC" transform="translate(626,406)"/>
<path d="M0 0 C0 0.66 0 1.32 0 2 C-2.52475462 3.26237731 -4.31200466 3.09856404 -7.125 3.0625 C-8.03507813 3.05347656 -8.94515625 3.04445313 -9.8828125 3.03515625 C-10.58148437 3.02355469 -11.28015625 3.01195312 -12 3 C-12.33 2.34 -12.66 1.68 -13 1 C-4.57142857 -1.42857143 -4.57142857 -1.42857143 0 0 Z " fill="#000706" transform="translate(554,435)"/>
<path d="M0 0 C4.96916636 0.51405169 9.29026351 1.23384882 14 3 C14 3.66 14 4.32 14 5 C15.32 5.33 16.64 5.66 18 6 C18 6.66 18 7.32 18 8 C13.78224268 6.64474464 9.70578678 5.09799886 5.625 3.375 C4.56539063 2.92898438 3.50578125 2.48296875 2.4140625 2.0234375 C1.61742187 1.68570312 0.82078125 1.34796875 0 1 C0 0.67 0 0.34 0 0 Z " fill="#1981A6" transform="translate(493,430)"/>
<path d="M0 0 C4.95 0 9.9 0 15 0 C15 0.33 15 0.66 15 1 C9 2.33333333 3 3.66666667 -3 5 C-3 4.34 -3 3.68 -3 3 C-1.02 3 0.96 3 3 3 C3 2.34 3 1.68 3 1 C2.01 0.67 1.02 0.34 0 0 Z " fill="#2878A3" transform="translate(595,414)"/>
<path d="M0 0 C1.50433594 0.01353516 1.50433594 0.01353516 3.0390625 0.02734375 C3.80992187 0.03894531 4.58078125 0.05054688 5.375 0.0625 C4.7665625 0.35769531 4.158125 0.65289063 3.53125 0.95703125 C1.26239098 2.06589916 1.26239098 2.06589916 -1.125 3.75 C-3.625 5.0625 -3.625 5.0625 -5.9375 4.75 C-6.494375 4.523125 -7.05125 4.29625 -7.625 4.0625 C-7.625 3.0725 -7.625 2.0825 -7.625 1.0625 C-4.98041621 -0.25979189 -2.94738699 -0.03427194 0 0 Z " fill="#17263E" transform="translate(416.625,583.9375)"/>
<path d="M0 0 C2.31 0.33 4.62 0.66 7 1 C6.2884375 2.175625 6.2884375 2.175625 5.5625 3.375 C4.66101977 4.88948678 3.78820515 6.4235897 3 8 C2.01 8 1.02 8 0 8 C0 5.36 0 2.72 0 0 Z " fill="#2A3243" transform="translate(283,581)"/>
<path d="M0 0 C2.32011034 3.66430125 2.26783151 6.85435257 2.25 11.125 C2.25773437 12.98511719 2.25773437 12.98511719 2.265625 14.8828125 C2 18 2 18 0 20 C-0.38133299 18.0085944 -0.71325582 16.00720923 -1 14 C-0.67 13.67 -0.34 13.34 0 13 C-0.66 12.34 -1.32 11.68 -2 11 C-1.67 10.67 -1.34 10.34 -1 10 C-0.76712992 8.31816052 -0.58735834 6.6287584 -0.4375 4.9375 C-0.35371094 4.01839844 -0.26992188 3.09929688 -0.18359375 2.15234375 C-0.12300781 1.44207031 -0.06242187 0.73179687 0 0 Z " fill="#111E34" transform="translate(430,568)"/>
<path d="M0 0 C0 1.65 0 3.3 0 5 C-2.64 5.33 -5.28 5.66 -8 6 C-8 5.01 -8 4.02 -8 3 C-5.0936485 0.19744677 -4.21174952 0 0 0 Z " fill="#17233D" transform="translate(472,546)"/>
<path d="M0 0 C3.375 0.25 3.375 0.25 4.375 1.25 C4.51615161 3.92058851 4.41747107 6.57432238 4.375 9.25 C2.395 9.25 0.415 9.25 -1.625 9.25 C-1.625 8.92 -1.625 8.59 -1.625 8.25 C0.025 8.25 1.675 8.25 3.375 8.25 C3.045 6.6 2.715 4.95 2.375 3.25 C-0.595 3.25 -3.565 3.25 -6.625 3.25 C-3.625 0.25 -3.625 0.25 0 0 Z " fill="#464E5D" transform="translate(468.625,542.75)"/>
<path d="M0 0 C-0.60328125 0.26554687 -1.2065625 0.53109375 -1.828125 0.8046875 C-2.62734375 1.15789062 -3.4265625 1.51109375 -4.25 1.875 C-5.03890625 2.22304688 -5.8278125 2.57109375 -6.640625 2.9296875 C-8.1477478 3.61338228 -9.63591674 4.34168661 -11.09375 5.125 C-13.75679269 6.34738025 -16.11149182 6.13129583 -19 6 C-16.07326863 4.04884575 -13.2870104 2.70354342 -10.0625 1.3125 C-9.02222656 0.85488281 -7.98195313 0.39726562 -6.91015625 -0.07421875 C-3.97978311 -1.00643141 -2.80276633 -1.11435288 0 0 Z " fill="#CEF6ED" transform="translate(584,471)"/>
<path d="M0 0 C0 0.33 0 0.66 0 1 C-7.47941368 2.94210433 -14.25847464 4.39363688 -22 4 C-15.68598198 -0.20934535 -7.41145544 -0.27967756 0 0 Z " fill="#BF962E" transform="translate(592,457)"/>
<path d="M0 0 C0 0.99 0 1.98 0 3 C-0.78375 3.268125 -1.5675 3.53625 -2.375 3.8125 C-5.28114923 4.84814432 -5.28114923 4.84814432 -7 8 C-7.99 8 -8.98 8 -10 8 C-9.875 6.25 -9.875 6.25 -9 4 C-3.88888889 0 -3.88888889 0 0 0 Z " fill="#2F3949" transform="translate(414,563)"/>
<path d="M0 0 C-1.26418246 0.69965443 -2.53665402 1.38434763 -3.8125 2.0625 C-4.52019531 2.44535156 -5.22789062 2.82820313 -5.95703125 3.22265625 C-8 4 -8 4 -11 3 C-13.3406065 3.27769908 -15.67624308 3.60539977 -18 4 C-15.07089056 2.04726038 -12.91867709 1.24603637 -9.5625 0.3125 C-8.61503906 0.04050781 -7.66757812 -0.23148437 -6.69140625 -0.51171875 C-4.01081763 -0.99803744 -2.53712417 -0.89369149 0 0 Z " fill="#44A887" transform="translate(592,466)"/>
<path d="M0 0 C0.66 0.99 1.32 1.98 2 3 C1.5625 5.0625 1.5625 5.0625 1 7 C1.33 7.66 1.66 8.32 2 9 C1.01 10.485 1.01 10.485 0 12 C-0.66 12 -1.32 12 -2 12 C-2.17835515 7.45194365 -1.99785435 4.1205746 0 0 Z " fill="#404755" transform="translate(284,536)"/>
<path d="M0 0 C2.64 0 5.28 0 8 0 C8 1.32 8 2.64 8 4 C5.1875 5.125 5.1875 5.125 2 6 C1.01 5.34 0.02 4.68 -1 4 C0.32 3.34 1.64 2.68 3 2 C2.01 1.34 1.02 0.68 0 0 Z " fill="#344259" transform="translate(500,583)"/>
<path d="M0 0 C1.65 0 3.3 0 5 0 C2.5 2 2.5 2 0 4 C-0.886875 4.7425 -1.77375 5.485 -2.6875 6.25 C-5 8 -5 8 -7 8 C-6.8125 6.125 -6.8125 6.125 -6 4 C-3.5 2.875 -3.5 2.875 -1 2 C-0.67 1.34 -0.34 0.68 0 0 Z " fill="#24302A" transform="translate(538,471)"/>
<path d="M0 0 C1.32 0 2.64 0 4 0 C4 0.66 4 1.32 4 2 C4.66 2 5.32 2 6 2 C6 2.66 6 3.32 6 4 C7.32 4 8.64 4 10 4 C10 4.66 10 5.32 10 6 C6.7 5.34 3.4 4.68 0 4 C0 2.68 0 1.36 0 0 Z " fill="#F4CE57" transform="translate(466,457)"/>
<path d="M0 0 C0.99 0.99 1.98 1.98 3 3 C1.68 3.33 0.36 3.66 -1 4 C-0.67 4.99 -0.34 5.98 0 7 C-1.65 7.33 -3.3 7.66 -5 8 C-3.8141763 4.62496331 -2.72426311 2.35277269 0 0 Z " fill="#242D42" transform="translate(522,546)"/>
<path d="M0 0 C1.98 0.66 3.96 1.32 6 2 C5.0409375 2.6496875 5.0409375 2.6496875 4.0625 3.3125 C1.73253997 4.91239177 1.73253997 4.91239177 1 8 C0.01 7.67 -0.98 7.34 -2 7 C-2 6.01 -2 5.02 -2 4 C-1.34 3.67 -0.68 3.34 0 3 C0 2.01 0 1.02 0 0 Z " fill="#0A4371" transform="translate(530,471)"/>
<path d="M0 0 C0.66 0 1.32 0 2 0 C2 1.32 2 2.64 2 4 C-1.14930893 5.04976964 -3.38814456 5.10131595 -6.6875 5.0625 C-7.68136719 5.05347656 -8.67523437 5.04445313 -9.69921875 5.03515625 C-10.83810547 5.01775391 -10.83810547 5.01775391 -12 5 C-9.05585952 3.03723968 -8.19795067 2.74523621 -4.875 2.5 C-2.956875 2.2525 -2.956875 2.2525 -1 2 C-0.67 1.34 -0.34 0.68 0 0 Z " fill="#153357" transform="translate(593,450)"/>
<path d="M0 0 C2.5625 2.125 2.5625 2.125 5 5 C4.8125 8.3125 4.8125 8.3125 4 11 C3.34 11 2.68 11 2 11 C2 8.69 2 6.38 2 4 C1.01 4 0.02 4 -1 4 C-0.67 2.68 -0.34 1.36 0 0 Z " fill="#EFBB2E" transform="translate(612,451)"/>
<path d="M0 0 C0 0.66 0 1.32 0 2 C1.65 2 3.3 2 5 2 C5 2.33 5 2.66 5 3 C-4.405 3.99 -4.405 3.99 -14 5 C-14 4.34 -14 3.68 -14 3 C-10.7 3 -7.4 3 -4 3 C-4 2.34 -4 1.68 -4 1 C-2 0 -2 0 0 0 Z " fill="#094262" transform="translate(535,403)"/>
<path d="M0 0 C0.99 0 1.98 0 3 0 C3.04254356 1.99954746 3.04080783 4.00041636 3 6 C2 7 2 7 -0.50390625 7.09765625 C-2.01791016 7.08025391 -2.01791016 7.08025391 -3.5625 7.0625 C-4.57441406 7.05347656 -5.58632813 7.04445313 -6.62890625 7.03515625 C-7.41136719 7.02355469 -8.19382812 7.01195312 -9 7 C-9 6.67 -9 6.34 -9 6 C-4.545 5.505 -4.545 5.505 0 5 C0 3.35 0 1.7 0 0 Z " fill="#475061" transform="translate(505,544)"/>
<path d="M0 0 C1.32 0 2.64 0 4 0 C3.8125 1.875 3.8125 1.875 3 4 C0.5625 5.1875 0.5625 5.1875 -2 6 C-2.99 6.495 -2.99 6.495 -4 7 C-4 5.68 -4 4.36 -4 3 C-3.01 3 -2.02 3 -1 3 C-0.67 2.01 -0.34 1.02 0 0 Z " fill="#F8BA0F" transform="translate(536,477)"/>
<path d="M0 0 C3.73639216 1.24546405 4.18756513 2.63404953 6 6 C4.34385343 6.38218767 2.67542976 6.71395102 1 7 C0 6 0 6 -0.0625 2.9375 C-0.041875 1.968125 -0.02125 0.99875 0 0 Z " fill="#065289" transform="translate(468,448)"/>
<path d="M0 0 C1.46015291 0.28241641 2.91809793 0.57626614 4.375 0.875 C5.18710937 1.03742188 5.99921875 1.19984375 6.8359375 1.3671875 C9 2 9 2 11 4 C6.58937864 5.0257259 4.07369424 5.03684712 0 3 C0 2.01 0 1.02 0 0 Z " fill="#1D8BB7" transform="translate(595,393)"/>
<path d="M0 0 C1.32 0.66 2.64 1.32 4 2 C3.67 2.66 3.34 3.32 3 4 C2.960008 5.99960012 2.95653201 8.00047242 3 10 C2.67 8.68 2.34 7.36 2 6 C0.68 6 -0.64 6 -2 6 C-1.34 4.02 -0.68 2.04 0 0 Z " fill="#344053" transform="translate(427,579)"/>
<path d="M0 0 C3 1 3 1 4 3 C4.06996014 4.70702735 4.08440154 6.41668003 4.0625 8.125 C4.05347656 9.03507813 4.04445313 9.94515625 4.03515625 10.8828125 C4.02355469 11.58148437 4.01195312 12.28015625 4 13 C3.67 13 3.34 13 3 13 C2.731875 11.741875 2.46375 10.48375 2.1875 9.1875 C1.40467463 6.00551199 0.74664072 3.99755689 -2 2 C-1.34 2 -0.68 2 0 2 C0 1.34 0 0.68 0 0 Z " fill="#293444" transform="translate(308,564)"/>
<path d="M0 0 C0 0.33 0 0.66 0 1 C-2.31 1.33 -4.62 1.66 -7 2 C-7 2.99 -7 3.98 -7 5 C-9.4375 4.625 -9.4375 4.625 -12 4 C-12.33 3.34 -12.66 2.68 -13 2 C-8.50343896 -0.24828052 -4.92127034 -0.16682272 0 0 Z " fill="#374356" transform="translate(420,543)"/>
<path d="M0 0 C0.66 0.33 1.32 0.66 2 1 C1.01 2.485 1.01 2.485 0 4 C-0.66 4 -1.32 4 -2 4 C-2.33 4.66 -2.66 5.32 -3 6 C-6.0625 6.625 -6.0625 6.625 -9 7 C-6.25604436 4.05278838 -3.61662784 1.80831392 0 0 Z " fill="#DCFAF6" transform="translate(541,487)"/>
<path d="M0 0 C2.475 0.495 2.475 0.495 5 1 C5 1.66 5 2.32 5 3 C5.61875 3.12375 6.2375 3.2475 6.875 3.375 C9 4 9 4 11 6 C10.34 6.66 9.68 7.32 9 8 C9 7.34 9 6.68 9 6 C8.071875 5.7525 7.14375 5.505 6.1875 5.25 C2.83541675 3.93545755 1.8122197 3.02036616 0 0 Z " fill="#F6BD17" transform="translate(504,474)"/>
<path d="M0 0 C0.33 0 0.66 0 1 0 C1.23268915 6.28260706 0.40454548 11.88019467 -1 18 C-1.33 18 -1.66 18 -2 18 C-2 14.04 -2 10.08 -2 6 C-1.34 6 -0.68 6 0 6 C0 4.02 0 2.04 0 0 Z " fill="#FCEDB5" transform="translate(607,464)"/>
<path d="M0 0 C2.31 0 4.62 0 7 0 C7 0.66 7 1.32 7 2 C3.91190305 3.76462683 2.76687864 4 -1 4 C-0.67 2.68 -0.34 1.36 0 0 Z " fill="#F8B711" transform="translate(572,461)"/>
<path d="M0 0 C0.33 0.66 0.66 1.32 1 2 C1.66 2.33 2.32 2.66 3 3 C-2.75 8 -2.75 8 -5 8 C-3.62845496 5.04590299 -2.01136276 2.55991624 0 0 Z " fill="#DBF3E6" transform="translate(532,487)"/>
<path d="M0 0 C-1.62249941 0.83819158 -3.24808497 1.6704116 -4.875 2.5 C-6.23238281 3.19609375 -6.23238281 3.19609375 -7.6171875 3.90625 C-10 5 -10 5 -12 5 C-11.375 3.125 -11.375 3.125 -10 1 C-6.18941183 -0.73961634 -3.96516557 -1.19298271 0 0 Z " fill="#2D2612" transform="translate(555,466)"/>
<path d="M0 0 C0.79921875 0.11085938 1.5984375 0.22171875 2.421875 0.3359375 C3.32679688 0.47902344 3.32679688 0.47902344 4.25 0.625 C4.25 1.285 4.25 1.945 4.25 2.625 C-0.04 2.295 -4.33 1.965 -8.75 1.625 C-4.77033543 -0.36483228 -4.07324868 -0.59900716 0 0 Z " fill="#022546" transform="translate(590.75,411.375)"/>
<path d="M0 0 C1.21236328 0.01353516 1.21236328 0.01353516 2.44921875 0.02734375 C3.37154297 0.04474609 3.37154297 0.04474609 4.3125 0.0625 C4.3125 0.3925 4.3125 0.7225 4.3125 1.0625 C3.60222656 1.19527344 2.89195312 1.32804688 2.16015625 1.46484375 C1.24105469 1.64144531 0.32195313 1.81804688 -0.625 2 C-1.54152344 2.17402344 -2.45804688 2.34804688 -3.40234375 2.52734375 C-5.64039844 2.83964988 -5.64039844 2.83964988 -6.6875 4.0625 C-8.35367115 4.10313832 -10.02138095 4.105221 -11.6875 4.0625 C-7.77955721 0.9630971 -4.97782666 -0.07214242 0 0 Z " fill="#616975" transform="translate(534.6875,541.9375)"/>
<path d="M0 0 C0.99 0.33 1.98 0.66 3 1 C3 1.99 3 2.98 3 4 C2.01 4.495 2.01 4.495 1 5 C1 5.66 1 6.32 1 7 C0.34 7 -0.32 7 -1 7 C-1 6.01 -1 5.02 -1 4 C-1.66 4 -2.32 4 -3 4 C-3 3.34 -3 2.68 -3 2 C-2.01 1.34 -1.02 0.68 0 0 Z " fill="#F4B509" transform="translate(524,487)"/>
<path d="M0 0 C0 0.33 0 0.66 0 1 C-2.64 1.33 -5.28 1.66 -8 2 C-8 2.66 -8 3.32 -8 4 C-9.98 4 -11.96 4 -14 4 C-10.23767262 -0.5543963 -5.55879521 -0.12927431 0 0 Z " fill="#FDFDF0" transform="translate(576,467)"/>
<path d="M0 0 C0.33 0.66 0.66 1.32 1 2 C1.66 2.33 2.32 2.66 3 3 C1.71034824 4.37562854 0.37310707 5.70766393 -1 7 C-1.66 7 -2.32 7 -3 7 C-2.25 2.25 -2.25 2.25 0 0 Z " fill="#427859" transform="translate(526,493)"/>
<path d="M0 0 C1.32 0.33 2.64 0.66 4 1 C4 1.99 4 2.98 4 4 C5.98 4 7.96 4 10 4 C9.01 4.99 8.02 5.98 7 7 C3.17053157 5.54744301 1.87949705 3.57104439 0 0 Z " fill="#2A3F44" transform="translate(517,479)"/>
<path d="M0 0 C0 0.66 0 1.32 0 2 C-3.21451269 3.60725635 -6.43612536 3.05748185 -10 3 C-6.68152292 -0.06320961 -4.44849969 -0.3033068 0 0 Z " fill="#FAB606" transform="translate(565,465)"/>
<path d="M0 0 C1.258125 0.12375 2.51625 0.2475 3.8125 0.375 C4.87404297 0.47941406 4.87404297 0.47941406 5.95703125 0.5859375 C8 1 8 1 11 3 C11 3.66 11 4.32 11 5 C9.53932801 4.54917531 8.08151968 4.08906463 6.625 3.625 C5.81289063 3.36976563 5.00078125 3.11453125 4.1640625 2.8515625 C2 2 2 2 0 0 Z " fill="#1987B0" transform="translate(471,421)"/>
<path d="M0 0 C4.67692308 1.47692308 4.67692308 1.47692308 6.3125 4.125 C6.539375 4.74375 6.76625 5.3625 7 6 C6.01 6 5.02 6 4 6 C4 5.34 4 4.68 4 4 C2.68 3.67 1.36 3.34 0 3 C0 2.01 0 1.02 0 0 Z " fill="#293446" transform="translate(430,544)"/>
<path d="M0 0 C0 0.99 0 1.98 0 3 C-1.65 3 -3.3 3 -5 3 C-5.33 2.01 -5.66 1.02 -6 0 C-3.50907189 -1.24546405 -2.58919267 -0.7767578 0 0 Z " fill="#0B3A65" transform="translate(494,453)"/>
<path d="M0 0 C3.3 0.99 6.6 1.98 10 3 C10 3.33 10 3.66 10 4 C4.62295082 5.3442623 4.62295082 5.3442623 1.625 3.6875 C0 2 0 2 0 0 Z " fill="#3B9BC0" transform="translate(586,389)"/>
<path d="M0 0 C0.99 0 1.98 0 3 0 C3 0.99 3 1.98 3 3 C-0.96 3 -4.92 3 -9 3 C-9 2.67 -9 2.34 -9 2 C-6.94921875 1.77213542 -4.8984375 1.54427083 -2.84765625 1.31640625 C-0.98859771 1.18113386 -0.98859771 1.18113386 0 0 Z " fill="#182637" transform="translate(505,587)"/>
<path d="M0 0 C1.32 0 2.64 0 4 0 C4 0.66 4 1.32 4 2 C5.65 2.33 7.3 2.66 9 3 C9 3.33 9 3.66 9 4 C6.1875 4.25 6.1875 4.25 3 4 C1.125 2 1.125 2 0 0 Z " fill="#F5C61D" transform="translate(483,463)"/>
<path d="M0 0 C0.53625 0.226875 1.0725 0.45375 1.625 0.6875 C0.4803125 1.0896875 0.4803125 1.0896875 -0.6875 1.5 C-3.27996926 2.64550967 -4.46315544 3.68461522 -6.375 5.6875 C-7.035 5.6875 -7.695 5.6875 -8.375 5.6875 C-8.375 4.6975 -8.375 3.7075 -8.375 2.6875 C-2.95961538 -0.38942308 -2.95961538 -0.38942308 0 0 Z " fill="#1A272A" transform="translate(564.375,459.3125)"/>
<path d="M0 0 C0.66 0 1.32 0 2 0 C1.83628906 0.56203125 1.67257812 1.1240625 1.50390625 1.703125 C0.97135003 4.13059056 0.90101319 6.26889681 0.9375 8.75 C0.94652344 9.54921875 0.95554687 10.3484375 0.96484375 11.171875 C0.97644531 11.77515625 0.98804688 12.3784375 1 13 C0.34 13 -0.32 13 -1 13 C-1.02696365 11.20841511 -1.04637917 9.41671527 -1.0625 7.625 C-1.07410156 6.62726563 -1.08570313 5.62953125 -1.09765625 4.6015625 C-1 2 -1 2 0 0 Z " fill="#074370" transform="translate(468,442)"/>
<path d="M0 0 C-3.68734758 2.45823172 -6.69699971 3.01242616 -11 4 C-11 3.34 -11 2.68 -11 2 C-7.36576791 -0.32590854 -4.22911669 -0.16265833 0 0 Z " fill="#DDFCFE" transform="translate(507,379)"/>
<path d="M0 0 C0.66 0 1.32 0 2 0 C2 2.31 2 4.62 2 7 C0.68 7 -0.64 7 -2 7 C-2 6.34 -2 5.68 -2 5 C-1.34 5 -0.68 5 0 5 C0 3.35 0 1.7 0 0 Z " fill="#162034" transform="translate(585,544)"/>
<path d="M0 0 C3.37503669 1.1858237 5.64722731 2.27573689 8 5 C5.36 4.34 2.72 3.68 0 3 C0 2.01 0 1.02 0 0 Z " fill="#E4BC3F" transform="translate(501,469)"/>
<path d="M0 0 C0.99 0 1.98 0 3 0 C4.75 2.3125 4.75 2.3125 6 5 C5.67 5.99 5.34 6.98 5 8 C2.74754119 5.31158141 1.11786042 3.35358125 0 0 Z " fill="#232E3F" transform="translate(621,574)"/>
<path d="M0 0 C2.625 0.375 2.625 0.375 5 1 C2.37352812 2.75098126 -0.28775382 4.38731308 -3 6 C-2.42655063 3.13275314 -2.1385485 2.1385485 0 0 Z " fill="#2A3749" transform="translate(414,567)"/>
<path d="M0 0 C1.65 0 3.3 0 5 0 C5 0.99 5 1.98 5 3 C3.02 3 1.04 3 -1 3 C-0.67 2.01 -0.34 1.02 0 0 Z " fill="#094272" transform="translate(522,480)"/>
<path d="M0 0 C1.65 0 3.3 0 5 0 C4.67 0.99 4.34 1.98 4 3 C2.02 3.33 0.04 3.66 -2 4 C-2 3.34 -2 2.68 -2 2 C-1.34 2 -0.68 2 0 2 C0 1.34 0 0.68 0 0 Z " fill="#F1FDF6" transform="translate(551,475)"/>
<path d="M0 0 C-3.85756507 2.15305957 -6.55129785 3.39253254 -11 3 C-7.18178484 -0.02823961 -4.81391924 -1.49397494 0 0 Z " fill="#D4EFF8" transform="translate(608,416)"/>
<path d="M0 0 C2.31 0.33 4.62 0.66 7 1 C7 1.66 7 2.32 7 3 C5.02 3.33 3.04 3.66 1 4 C0.67 2.68 0.34 1.36 0 0 Z " fill="#3488AA" transform="translate(625,403)"/>
</svg>
